<svg xmlns="http://www.w3.org/2000/svg" width="375" viewBox="0 0 375 375" height="375" version="1.0"><defs><clipPath id="a"><path d="M 110 239 L 351 239 L 351 369.34375 L 110 369.34375 Z M 110 239"/></clipPath><clipPath id="b"><path d="M 135 259 L 351 259 L 351 369.34375 L 135 369.34375 Z M 135 259"/></clipPath><clipPath id="c"><path d="M 136 284 L 350 284 L 350 369.34375 L 136 369.34375 Z M 136 284"/></clipPath><clipPath id="d"><path d="M 135 259 L 351 259 L 351 369.34375 L 135 369.34375 Z M 135 259"/></clipPath><clipPath id="e"><path d="M 135 259 L 351 259 L 351 369.34375 L 135 369.34375 Z M 135 259"/></clipPath></defs><path fill="#2744A0" d="M 147.710938 274.851562 C 141.6875 237.296875 127.9375 199.402344 96.6875 176.03125 C 81.65625 164.785156 67.007812 153.765625 54.75 139.3125 C 43.957031 126.582031 31.566406 105.160156 40.125 88.195312 C 46.804688 74.945312 62.628906 84.640625 67.21875 94.023438 C 73.949219 107.78125 66.671875 127.769531 50.128906 126.796875 C 31.53125 125.707031 19.726562 104.9375 18.367188 88.277344 C 16.558594 66.125 32.457031 48.878906 53.882812 47.09375 C 68.109375 45.914062 82.359375 51.121094 95.15625 56.835938 C 111.164062 63.992188 123.496094 74.773438 132.382812 89.992188 C 139.566406 102.289062 145.660156 114.96875 156.964844 124 C 167.53125 132.441406 180.773438 136.425781 193.90625 138.375 C 199.183594 139.164062 201.457031 131.007812 196.132812 130.214844 C 174.386719 126.984375 158.527344 117.9375 146.980469 98.769531 C 142.113281 90.699219 138.136719 82.066406 132.34375 74.59375 C 125.75 66.097656 117.476562 59.535156 108.292969 54.097656 C 79.929688 37.3125 34.039062 27.328125 15.070312 62.839844 C 0.113281 90.839844 18.097656 131.527344 50.128906 135.257812 C 79.539062 138.691406 85.050781 95.675781 66.824219 79.71875 C 55.308594 69.636719 37.785156 71.996094 31.625 86.675781 C 22.4375 108.574219 38.007812 133.027344 51.839844 148.777344 C 68.707031 167.988281 92.21875 179.441406 108.691406 198.753906 C 127.089844 220.320312 135.222656 249.5625 139.644531 277.101562 C 140.503906 282.472656 148.574219 280.1875 147.710938 274.851562"/><path fill="#2744A0" d="M 86.5 50.585938 C 98.71875 47.730469 110.597656 43.046875 123.136719 41.753906 C 135.859375 40.445312 147.84375 44.871094 158.789062 51.011719 C 178.078125 61.84375 194.199219 77.933594 216.019531 83.769531 C 221.246094 85.167969 223.460938 77.003906 218.25 75.609375 C 195.101562 69.421875 177.925781 51.027344 156.867188 40.4375 C 146.320312 35.128906 134.90625 32.574219 123.136719 33.292969 C 109.851562 34.105469 97.136719 39.417969 84.273438 42.425781 C 79.015625 43.652344 81.246094 51.8125 86.5 50.585938"/><path fill="#F89AC4" d="M 194.328125 155.914062 C 188.113281 155.914062 181.179688 152.535156 176.65625 147.296875 C 172.992188 143.039062 167.472656 133.28125 172.878906 126.820312 C 172.988281 126.6875 173.101562 126.558594 173.21875 126.433594 L 173.355469 126.199219 C 175.417969 122.890625 178.945312 121.210938 183.847656 121.210938 C 186.746094 121.210938 190.066406 121.789062 193.988281 122.988281 C 199.90625 124.792969 208.09375 128.015625 210.902344 135.101562 C 212.277344 138.574219 212.046875 142.300781 210.234375 145.882812 C 207.925781 150.441406 203.210938 154.195312 198.214844 155.445312 C 196.980469 155.761719 195.671875 155.914062 194.328125 155.914062"/><path fill="#2744A0" d="M 183.847656 120.003906 C 178.511719 120.003906 174.636719 121.875 172.332031 125.570312 L 172.25 125.714844 C 172.148438 125.820312 172.050781 125.929688 171.957031 126.042969 C 166.820312 132.199219 170.324219 141.789062 175.757812 148.09375 C 180.492188 153.578125 187.78125 157.125 194.328125 157.125 C 195.773438 157.125 197.175781 156.953125 198.507812 156.625 C 203.820312 155.285156 208.84375 151.289062 211.304688 146.429688 C 213.273438 142.535156 213.523438 138.457031 212.015625 134.648438 C 209.015625 127.082031 200.488281 123.707031 194.335938 121.828125 C 190.300781 120.601562 186.867188 120.003906 183.847656 120.003906 Z M 183.847656 122.417969 C 187.261719 122.417969 190.84375 123.292969 193.644531 124.144531 C 199.730469 126 207.238281 129.101562 209.792969 135.546875 C 213.0625 143.804688 205.683594 152.324219 197.929688 154.277344 C 196.753906 154.566406 195.546875 154.707031 194.328125 154.707031 C 188.066406 154.707031 181.5 151.066406 177.5625 146.5 C 173.679688 142 169.152344 133.152344 173.789062 127.597656 C 173.921875 127.4375 174.0625 127.289062 174.203125 127.140625 C 174.25 127.046875 174.296875 126.953125 174.355469 126.859375 C 176.457031 123.492188 180.050781 122.417969 183.847656 122.417969"/><path fill="#F89AC4" d="M 218.980469 94.242188 C 212.746094 94.242188 206.726562 90.183594 202.734375 87.128906 C 194.082031 80.511719 190.863281 74.195312 193.15625 68.363281 L 193.25 68.140625 C 193.285156 67.960938 193.320312 67.796875 193.367188 67.625 C 194.980469 60.9375 202.84375 58.554688 209.660156 58.554688 C 210.472656 58.554688 211.242188 58.59375 211.960938 58.660156 C 219.207031 59.296875 228.132812 63.910156 231.175781 71.472656 C 233.113281 76.289062 232.886719 82.359375 230.601562 86.925781 C 228.808594 90.515625 225.964844 92.898438 222.378906 93.820312 C 221.285156 94.101562 220.140625 94.242188 218.980469 94.242188"/><path fill="#2744A0" d="M 209.660156 57.347656 C 202.390625 57.347656 193.980469 59.972656 192.203125 67.335938 C 192.164062 67.480469 192.136719 67.628906 192.109375 67.769531 L 192.03125 67.964844 C 189.523438 74.316406 192.882812 81.105469 202.015625 88.097656 C 206.136719 91.253906 212.386719 95.453125 218.980469 95.453125 C 220.238281 95.453125 221.484375 95.296875 222.671875 94.992188 C 226.609375 93.980469 229.714844 91.382812 231.671875 87.472656 C 234.101562 82.605469 234.34375 76.144531 232.28125 71.019531 C 228.910156 62.632812 219.441406 58.105469 212.066406 57.453125 C 211.292969 57.382812 210.484375 57.347656 209.660156 57.347656 Z M 209.660156 59.769531 C 210.433594 59.769531 211.171875 59.800781 211.859375 59.863281 C 218.988281 60.492188 227.265625 64.96875 230.070312 71.925781 C 233.074219 79.410156 230.609375 90.460938 222.082031 92.648438 C 221.050781 92.914062 220.011719 93.035156 218.980469 93.035156 C 213.328125 93.035156 207.738281 89.445312 203.457031 86.167969 C 198.535156 82.402344 191.503906 75.839844 194.269531 68.8125 C 194.308594 68.703125 194.355469 68.609375 194.398438 68.515625 C 194.4375 68.316406 194.476562 68.113281 194.527344 67.910156 C 196.035156 61.671875 203.8125 59.769531 209.660156 59.769531"/><path fill="#2744A0" d="M 362.417969 224.199219 C 356.332031 235.136719 343.917969 238.785156 333.222656 243.691406 C 328.3125 245.941406 332.570312 253.234375 337.449219 250.996094 C 349.757812 245.351562 362.621094 241.082031 369.648438 228.472656 C 372.296875 223.710938 365.066406 219.445312 362.417969 224.199219"/><path fill="#F89AC4" d="M 278.707031 257.09375 C 278.511719 257.09375 278.3125 257.046875 278.140625 256.953125 C 277.808594 256.773438 277.582031 256.453125 277.523438 256.082031 C 276.152344 247.519531 274.71875 238.964844 273.285156 230.414062 C 271.765625 221.332031 270.191406 211.9375 268.722656 202.699219 C 267.566406 195.429688 266.554688 188.027344 265.570312 180.863281 C 264.679688 174.355469 263.757812 167.628906 262.738281 161.035156 C 261.539062 153.328125 260.175781 145.515625 258.855469 137.960938 L 258.511719 135.972656 C 258.414062 135.429688 258.699219 134.886719 259.195312 134.660156 L 284.839844 122.902344 C 284.996094 122.832031 285.164062 122.792969 285.332031 122.792969 C 285.519531 122.792969 285.707031 122.839844 285.878906 122.925781 C 286.199219 123.09375 286.433594 123.402344 286.503906 123.761719 L 310.269531 241.714844 C 310.378906 242.261719 310.09375 242.824219 309.59375 243.054688 L 279.199219 256.984375 C 279.039062 257.0625 278.875 257.09375 278.707031 257.09375"/><path fill="#2744A0" d="M 285.332031 121.585938 C 284.996094 121.585938 284.660156 121.65625 284.34375 121.800781 L 258.699219 133.5625 C 257.703125 134.015625 257.140625 135.097656 257.332031 136.183594 L 257.679688 138.171875 C 258.996094 145.722656 260.355469 153.53125 261.554688 161.222656 C 262.578125 167.804688 263.496094 174.527344 264.386719 181.027344 C 265.371094 188.195312 266.382812 195.609375 267.542969 202.894531 C 269.011719 212.136719 270.582031 221.53125 272.109375 230.617188 C 273.519531 239.023438 274.972656 247.714844 276.34375 256.273438 C 276.464844 257.015625 276.917969 257.660156 277.574219 258.015625 C 277.929688 258.207031 278.3125 258.308594 278.707031 258.308594 C 279.039062 258.308594 279.375 258.230469 279.695312 258.085938 L 310.085938 244.15625 C 311.097656 243.691406 311.660156 242.578125 311.4375 241.472656 L 287.679688 123.519531 C 287.53125 122.800781 287.070312 122.183594 286.417969 121.851562 C 286.078125 121.675781 285.707031 121.585938 285.332031 121.585938 M 285.332031 124 L 309.097656 241.953125 L 278.707031 255.886719 C 275.855469 238.070312 272.730469 220.296875 269.90625 202.507812 C 267.699219 188.648438 266.070312 174.707031 263.921875 160.851562 C 262.613281 152.464844 261.144531 144.117188 259.6875 135.761719 L 285.332031 124"/><path fill="#F89AC4" d="M 258.3125 133.78125 C 258.433594 133.695312 258.558594 133.625 258.699219 133.558594 L 284.34375 121.800781 L 258.699219 133.5625 C 258.5625 133.625 258.433594 133.695312 258.316406 133.78125 C 258.3125 133.78125 258.3125 133.78125 258.3125 133.78125 M 284.34375 121.800781 C 284.660156 121.65625 284.996094 121.585938 285.332031 121.585938 C 285.433594 121.585938 285.539062 121.59375 285.644531 121.609375 L 285.640625 121.609375 C 285.539062 121.59375 285.433594 121.585938 285.332031 121.585938 C 284.996094 121.585938 284.660156 121.65625 284.34375 121.800781"/><path fill="#F35FA1" d="M 279.746094 252.621094 C 278.570312 245.363281 277.339844 238.050781 276.148438 230.949219 C 274.035156 218.382812 271.851562 205.386719 269.921875 192.585938 C 269.128906 187.347656 268.40625 182.003906 267.707031 176.835938 C 266.757812 169.820312 265.773438 162.570312 264.609375 155.449219 C 263.613281 149.359375 262.539062 143.1875 261.5 137.222656 L 261.238281 135.714844 C 261.199219 135.507812 261.140625 135.316406 261.058594 135.132812 L 285.332031 124 L 286.109375 127.851562 L 286.527344 130.125 C 283.460938 131.0625 280.382812 132.253906 277.566406 133.71875 C 274.375 135.375 271.589844 137.726562 269.757812 140.863281 C 267.894531 144.050781 267.328125 147.832031 267.183594 151.472656 C 266.964844 156.890625 267.914062 162.085938 269.242188 167.3125 C 270.78125 173.351562 271.992188 179.441406 273.257812 185.546875 C 274.558594 191.796875 276.105469 197.996094 277.355469 204.257812 C 278.394531 209.449219 279.042969 214.734375 280.566406 219.8125 C 282.109375 224.933594 284.492188 230.230469 289.132812 233.179688 C 292.273438 235.179688 296.117188 235.785156 299.847656 235.785156 C 300.894531 235.785156 301.929688 235.738281 302.945312 235.660156 C 303.992188 235.574219 305.019531 235.429688 306.023438 235.230469 L 306.9375 240.152344 L 279.746094 252.621094"/><path fill="#2A3D94" d="M 261.058594 135.132812 C 260.839844 134.648438 260.46875 134.246094 259.996094 133.996094 C 259.929688 133.957031 259.859375 133.925781 259.792969 133.894531 C 259.5 133.773438 259.1875 133.714844 258.878906 133.714844 C 258.6875 133.714844 258.503906 133.738281 258.316406 133.78125 C 258.433594 133.695312 258.5625 133.625 258.699219 133.5625 L 284.34375 121.800781 C 284.660156 121.65625 284.996094 121.585938 285.332031 121.585938 C 285.433594 121.585938 285.539062 121.59375 285.640625 121.609375 C 285.300781 122.121094 285.160156 122.757812 285.277344 123.394531 L 286.109375 127.851562 L 285.332031 124 L 261.058594 135.132812"/><path fill="#A4A1D8" d="M 113.097656 333.023438 C 112.890625 333.023438 112.683594 332.96875 112.503906 332.863281 C 112.167969 332.667969 111.945312 332.320312 111.910156 331.933594 L 99.425781 208.816406 C 99.375 208.296875 99.652344 207.804688 100.125 207.59375 L 258.386719 135.03125 C 258.542969 134.960938 258.714844 134.921875 258.882812 134.921875 C 259.074219 134.921875 259.261719 134.972656 259.4375 135.0625 C 259.761719 135.238281 259.992188 135.554688 260.058594 135.921875 L 260.324219 137.429688 C 261.378906 143.496094 262.433594 149.566406 263.429688 155.648438 C 264.59375 162.75 265.574219 169.996094 266.523438 176.996094 C 267.21875 182.171875 267.945312 187.523438 268.738281 192.765625 C 270.671875 205.582031 272.859375 218.582031 274.96875 231.152344 C 276.363281 239.449219 277.757812 247.75 279.09375 256.054688 C 279.179688 256.59375 278.898438 257.125 278.410156 257.347656 L 113.589844 332.914062 C 113.429688 332.984375 113.261719 333.023438 113.097656 333.023438"/><path fill="#2744A0" d="M 258.882812 133.714844 C 258.542969 133.714844 258.207031 133.785156 257.894531 133.929688 L 99.632812 206.488281 C 98.691406 206.917969 98.128906 207.902344 98.238281 208.9375 L 110.71875 332.058594 C 110.792969 332.832031 111.238281 333.523438 111.90625 333.90625 C 112.273438 334.125 112.683594 334.230469 113.097656 334.230469 C 113.429688 334.230469 113.769531 334.15625 114.082031 334.015625 L 278.898438 258.449219 C 279.886719 258 280.449219 256.941406 280.273438 255.859375 C 278.9375 247.550781 277.519531 239.113281 276.148438 230.949219 C 274.035156 218.382812 271.851562 205.386719 269.921875 192.585938 C 269.128906 187.347656 268.40625 182.003906 267.707031 176.835938 C 266.757812 169.820312 265.773438 162.570312 264.609375 155.449219 C 263.613281 149.359375 262.539062 143.1875 261.5 137.222656 L 261.238281 135.714844 C 261.105469 134.980469 260.648438 134.34375 259.996094 133.996094 C 259.644531 133.808594 259.261719 133.714844 258.882812 133.714844 M 258.882812 136.132812 C 260.027344 142.699219 261.175781 149.265625 262.253906 155.84375 C 264.273438 168.175781 265.691406 180.597656 267.554688 192.953125 C 270.746094 214.09375 274.515625 235.140625 277.914062 256.25 L 113.097656 331.8125 L 100.617188 208.691406 L 258.882812 136.132812"/><path fill="#A4A1D8" d="M 112.226562 334.066406 C 112.117188 334.023438 112.007812 333.972656 111.90625 333.910156 C 111.742188 333.8125 111.589844 333.699219 111.453125 333.570312 C 111.589844 333.699219 111.742188 333.8125 111.90625 333.90625 C 112.007812 333.96875 112.113281 334.023438 112.222656 334.0625 L 112.226562 334.066406 M 111.453125 333.570312 C 111.453125 333.570312 111.453125 333.566406 111.449219 333.566406 C 111.453125 333.566406 111.453125 333.570312 111.453125 333.570312 M 111.449219 333.566406 C 111.222656 333.351562 111.042969 333.09375 110.914062 332.808594 C 110.90625 332.789062 110.902344 332.777344 110.894531 332.761719 C 110.898438 332.773438 110.90625 332.785156 110.910156 332.792969 C 111.039062 333.082031 111.21875 333.347656 111.449219 333.566406 M 110.660156 331.523438 L 98.238281 208.9375 C 98.128906 207.902344 98.691406 206.917969 99.632812 206.488281 L 110.832031 201.351562 L 99.632812 206.488281 C 98.691406 206.917969 98.128906 207.902344 98.238281 208.9375 L 110.660156 331.5 C 110.660156 331.507812 110.660156 331.515625 110.660156 331.523438 M 118.394531 197.886719 L 118.394531 197.882812 L 257.890625 133.925781 C 258.027344 133.867188 258.171875 133.816406 258.3125 133.78125 C 258.3125 133.78125 258.308594 133.78125 258.308594 133.785156 C 258.171875 133.820312 258.03125 133.871094 257.894531 133.929688 L 118.394531 197.886719"/><path fill="#293E9C" d="M 110.832031 201.351562 L 118.394531 197.882812 L 118.394531 197.886719 L 110.832031 201.351562"/><path fill="#A669B1" d="M 258.308594 133.785156 C 258.308594 133.78125 258.3125 133.78125 258.3125 133.78125 C 258.3125 133.78125 258.3125 133.78125 258.316406 133.78125 C 258.3125 133.78125 258.3125 133.78125 258.3125 133.785156 C 258.308594 133.785156 258.308594 133.785156 258.308594 133.785156"/><path fill="#2B3A92" d="M 259.792969 133.894531 C 259.496094 133.773438 259.191406 133.714844 258.882812 133.714844 C 258.6875 133.714844 258.5 133.738281 258.3125 133.785156 C 258.3125 133.78125 258.3125 133.78125 258.316406 133.78125 C 258.503906 133.738281 258.6875 133.714844 258.878906 133.714844 C 259.1875 133.714844 259.5 133.773438 259.792969 133.894531"/><path fill="#7271C0" d="M 112.824219 329.148438 L 100.617188 208.691406 L 258.882812 136.132812 C 259.359375 138.878906 259.839844 141.625 260.316406 144.371094 C 257.300781 145.261719 254.25 146.027344 251.25 146.953125 C 245.179688 148.832031 239.265625 151.359375 233.367188 153.722656 C 221.359375 158.53125 209.355469 163.324219 197.511719 168.546875 C 185.570312 173.816406 173.761719 179.386719 162.03125 185.101562 C 152.949219 189.53125 143.695312 193.785156 134.976562 198.921875 C 127.734375 203.1875 120.855469 208.351562 115.855469 215.238281 C 110.550781 222.542969 108.132812 231.742188 109.027344 240.742188 C 109.605469 246.617188 111.628906 252.203125 113.035156 257.894531 C 114.589844 264.183594 115.886719 270.535156 117.703125 276.753906 C 120.769531 287.285156 125.972656 296.496094 134.015625 303.945312 C 138.042969 307.679688 142.589844 310.703125 147.375 313.308594 L 112.824219 329.148438"/><path fill="#293E9C" d="M 112.222656 334.0625 C 112.113281 334.023438 112.007812 333.96875 111.90625 333.90625 C 111.742188 333.8125 111.589844 333.699219 111.453125 333.570312 C 111.453125 333.570312 111.453125 333.566406 111.449219 333.566406 C 111.21875 333.347656 111.039062 333.082031 110.910156 332.792969 C 111.089844 333.152344 111.351562 333.460938 111.691406 333.695312 L 112.222656 334.0625 M 110.660156 331.5 L 98.238281 208.9375 C 98.128906 207.902344 98.691406 206.917969 99.632812 206.488281 L 110.832031 201.351562 L 118.394531 197.886719 L 257.894531 133.929688 C 258.03125 133.871094 258.171875 133.820312 258.308594 133.785156 C 258.308594 133.785156 258.308594 133.785156 258.3125 133.785156 C 258.5 133.738281 258.6875 133.714844 258.882812 133.714844 C 259.191406 133.714844 259.496094 133.773438 259.792969 133.894531 C 259.859375 133.925781 259.929688 133.957031 259.992188 133.996094 C 260.46875 134.25 260.839844 134.652344 261.058594 135.132812 C 261.140625 135.316406 261.199219 135.511719 261.238281 135.714844 L 261.601562 137.835938 C 261.941406 139.757812 262.277344 141.703125 262.617188 143.660156 C 261.851562 143.90625 261.082031 144.144531 260.316406 144.371094 C 259.839844 141.625 259.359375 138.878906 258.882812 136.132812 L 100.617188 208.691406 L 112.824219 329.148438 L 112.054688 329.5 C 111.699219 329.664062 111.398438 329.910156 111.164062 330.207031 C 111.164062 330.210938 111.164062 330.210938 111.164062 330.210938 C 110.882812 330.570312 110.707031 331.011719 110.664062 331.480469 C 110.664062 331.484375 110.664062 331.488281 110.664062 331.492188 C 110.660156 331.496094 110.660156 331.5 110.660156 331.5"/><path fill="#B58EC0" d="M 146.9375 270.25 C 146.730469 270.25 146.519531 270.199219 146.339844 270.085938 C 146.007812 269.894531 145.785156 269.550781 145.742188 269.164062 L 140.183594 214.292969 C 140.128906 213.777344 140.410156 213.285156 140.878906 213.066406 L 238.804688 168.167969 C 238.964844 168.101562 239.136719 168.0625 239.300781 168.0625 C 239.488281 168.0625 239.671875 168.109375 239.847656 168.195312 C 240.167969 168.363281 240.398438 168.667969 240.472656 169.03125 L 251.0625 221.59375 C 251.171875 222.148438 250.890625 222.703125 250.382812 222.941406 L 147.429688 270.140625 C 147.269531 270.210938 147.101562 270.25 146.9375 270.25"/><path fill="#2744A0" d="M 239.300781 166.855469 C 238.964844 166.855469 238.625 166.925781 238.3125 167.070312 L 140.382812 211.96875 C 139.449219 212.398438 138.890625 213.382812 138.996094 214.414062 L 144.558594 269.289062 C 144.632812 270.0625 145.078125 270.75 145.742188 271.136719 C 146.109375 271.347656 146.519531 271.457031 146.9375 271.457031 C 147.269531 271.457031 147.605469 271.386719 147.921875 271.242188 L 250.875 224.042969 C 251.894531 223.574219 252.457031 222.457031 252.234375 221.355469 L 241.644531 168.789062 C 241.5 168.066406 241.039062 167.453125 240.386719 167.121094 C 240.050781 166.941406 239.671875 166.855469 239.300781 166.855469 Z M 239.300781 169.269531 L 249.890625 221.835938 L 146.9375 269.042969 L 141.375 214.167969 L 239.300781 169.269531"/><path fill="#7FD1EC" d="M 141.757812 219.152344 C 141.554688 219.152344 141.34375 219.101562 141.164062 218.992188 C 140.832031 218.800781 140.605469 218.457031 140.570312 218.070312 L 140.183594 214.292969 C 140.128906 213.777344 140.410156 213.285156 140.878906 213.066406 L 238.804688 168.167969 C 238.964844 168.101562 239.136719 168.0625 239.300781 168.0625 C 239.488281 168.0625 239.671875 168.109375 239.84375 168.195312 C 240.167969 168.363281 240.398438 168.667969 240.472656 169.03125 L 241.160156 172.441406 C 241.269531 172.976562 241.011719 173.519531 240.527344 173.765625 L 235.761719 176.175781 L 142.253906 219.046875 C 142.09375 219.117188 141.929688 219.152344 141.757812 219.152344"/><path fill="#2744A0" d="M 239.300781 166.855469 C 238.964844 166.855469 238.625 166.925781 238.3125 167.070312 L 140.382812 211.96875 C 139.449219 212.398438 138.890625 213.382812 138.996094 214.417969 L 139.378906 218.191406 C 139.457031 218.96875 139.898438 219.652344 140.570312 220.042969 C 140.933594 220.253906 141.34375 220.363281 141.757812 220.363281 C 142.09375 220.363281 142.429688 220.292969 142.746094 220.148438 L 236.21875 177.296875 L 236.300781 177.257812 L 241.0625 174.84375 C 242.027344 174.355469 242.546875 173.269531 242.335938 172.203125 L 241.644531 168.789062 C 241.5 168.066406 241.035156 167.453125 240.386719 167.121094 C 240.046875 166.941406 239.671875 166.855469 239.300781 166.855469 Z M 239.300781 169.269531 L 239.988281 172.683594 L 235.226562 175.09375 L 141.757812 217.945312 L 141.375 214.167969 L 239.300781 169.269531"/><path fill="#F7E88E" d="M 147.527344 283.519531 C 147.320312 283.519531 147.113281 283.464844 146.929688 283.359375 C 146.59375 283.164062 146.375 282.816406 146.335938 282.433594 L 145.929688 278.445312 C 145.878906 277.925781 146.160156 277.433594 146.628906 277.21875 L 250.171875 229.75 C 250.328125 229.675781 250.492188 229.640625 250.664062 229.640625 C 250.847656 229.640625 251.039062 229.683594 251.207031 229.773438 C 251.53125 229.9375 251.765625 230.246094 251.835938 230.609375 L 252.605469 234.433594 C 252.714844 234.980469 252.433594 235.542969 251.925781 235.773438 L 148.019531 283.414062 C 147.863281 283.480469 147.695312 283.519531 147.527344 283.519531"/><path fill="#2744A0" d="M 250.664062 228.429688 C 250.328125 228.429688 249.988281 228.503906 249.675781 228.644531 L 146.136719 276.117188 C 145.195312 276.546875 144.636719 277.53125 144.742188 278.566406 L 145.144531 282.558594 C 145.226562 283.328125 145.664062 284.019531 146.335938 284.410156 C 146.703125 284.621094 147.113281 284.726562 147.527344 284.726562 C 147.859375 284.726562 148.195312 284.65625 148.511719 284.511719 L 252.421875 236.875 C 253.4375 236.410156 254 235.296875 253.777344 234.191406 L 253.007812 230.367188 C 252.863281 229.644531 252.398438 229.027344 251.753906 228.695312 C 251.410156 228.515625 251.039062 228.429688 250.664062 228.429688 Z M 250.664062 230.851562 L 251.433594 234.671875 L 147.527344 282.3125 L 147.121094 278.320312 L 250.664062 230.851562"/><path fill="#7FD1EC" d="M 348.191406 282.316406 C 347.882812 282.316406 347.570312 282.191406 347.339844 281.953125 L 308.808594 242.546875 C 308.640625 242.375 308.523438 242.15625 308.480469 241.921875 L 286.457031 123.175781 C 286.359375 122.644531 286.617188 122.117188 287.09375 121.875 C 287.265625 121.785156 287.445312 121.746094 287.632812 121.746094 C 287.957031 121.746094 288.277344 121.878906 288.511719 122.132812 L 325.308594 162.335938 C 325.457031 162.492188 325.558594 162.695312 325.605469 162.914062 L 349.363281 280.863281 C 349.472656 281.386719 349.226562 281.921875 348.757812 282.171875 C 348.578125 282.269531 348.386719 282.316406 348.191406 282.316406"/><path fill="#2744A0" d="M 287.632812 120.53125 C 287.265625 120.53125 286.898438 120.621094 286.558594 120.789062 C 285.605469 121.273438 285.085938 122.339844 285.28125 123.394531 L 307.308594 242.140625 C 307.394531 242.613281 307.621094 243.054688 307.953125 243.398438 L 346.492188 282.804688 C 346.953125 283.277344 347.566406 283.523438 348.191406 283.523438 C 348.578125 283.523438 348.964844 283.429688 349.320312 283.238281 C 350.253906 282.730469 350.75 281.671875 350.539062 280.621094 L 326.773438 162.671875 C 326.6875 162.238281 326.480469 161.839844 326.183594 161.511719 L 289.386719 121.308594 C 288.921875 120.800781 288.285156 120.53125 287.632812 120.53125 M 287.632812 122.953125 L 324.429688 163.15625 L 348.191406 281.105469 L 309.660156 241.699219 L 287.632812 122.953125"/><path fill="#7FD1EC" d="M 350.574219 281.324219 C 350.582031 281.25 350.585938 281.183594 350.585938 281.109375 C 350.585938 281.183594 350.582031 281.25 350.574219 281.324219 M 349.382812 274.902344 L 346.574219 260.953125 C 346.574219 260.953125 346.578125 260.953125 346.578125 260.953125 L 349.382812 274.902344 M 285.644531 121.609375 C 285.675781 121.558594 285.710938 121.511719 285.75 121.460938 C 285.710938 121.511719 285.675781 121.558594 285.644531 121.609375"/><path fill="#8488BB" d="M 306.023438 235.230469 L 286.527344 130.125 L 306.027344 235.230469 C 306.023438 235.230469 306.023438 235.230469 306.023438 235.230469"/><path fill="#885D9D" d="M 306.9375 240.152344 L 306.023438 235.230469 C 306.023438 235.230469 306.023438 235.230469 306.027344 235.230469 L 306.941406 240.152344 L 306.9375 240.152344 M 286.527344 130.125 L 286.109375 127.851562 L 286.128906 127.957031 L 286.527344 130.125"/><path fill="#2A3D90" d="M 286.128906 127.957031 L 286.109375 127.851562 L 285.277344 123.394531 C 285.160156 122.757812 285.300781 122.121094 285.640625 121.609375 C 285.644531 121.609375 285.644531 121.609375 285.644531 121.609375 C 285.304688 122.121094 285.164062 122.757812 285.28125 123.394531 L 286.128906 127.957031"/><path fill="#7FD1EC" d="M 327.992188 168.726562 L 326.773438 162.671875 C 326.6875 162.238281 326.480469 161.839844 326.183594 161.511719 L 317.203125 151.695312 L 326.1875 161.511719 C 326.359375 161.703125 326.503906 161.921875 326.609375 162.15625 C 326.683594 162.320312 326.738281 162.492188 326.777344 162.671875 L 327.992188 168.726562 M 287.210938 120.570312 C 287.300781 120.554688 287.390625 120.542969 287.476562 120.539062 C 287.390625 120.542969 287.300781 120.554688 287.210938 120.570312"/><path fill="#40B9E0" d="M 347.546875 277.890625 L 310.75 240.144531 C 310.335938 239.722656 309.796875 239.480469 309.238281 239.433594 L 287.632812 122.953125 L 324.429688 163.15625 L 325.25 167.207031 C 322.109375 163.65625 318.804688 160.238281 315.675781 156.765625 C 313.226562 154.050781 308.074219 148.597656 303.53125 148.597656 C 302.136719 148.597656 300.796875 149.109375 299.609375 150.375 C 297.007812 153.152344 297.804688 157.992188 298.203125 161.367188 C 298.941406 167.4375 300.378906 173.402344 301.980469 179.292969 C 303.585938 185.21875 305.410156 191.078125 307.046875 196.992188 C 308.644531 202.792969 309.742188 208.679688 311.035156 214.554688 C 312.574219 221.535156 314.667969 228.398438 317.582031 234.921875 C 320.285156 240.945312 323.929688 247.269531 328.867188 251.710938 C 333.210938 255.621094 338.523438 258.046875 343.945312 260.03125 L 347.546875 277.890625"/><path fill="#27439B" d="M 350.574219 281.324219 C 350.5625 281.28125 350.542969 281.238281 350.523438 281.199219 C 350.511719 281.171875 350.5 281.148438 350.488281 281.121094 C 350.371094 280.863281 350.214844 280.625 350.011719 280.425781 L 347.546875 277.890625 L 343.945312 260.03125 C 344.441406 260.210938 344.9375 260.390625 345.433594 260.5625 C 345.8125 260.691406 346.195312 260.824219 346.574219 260.953125 L 349.382812 274.902344 L 350.539062 280.621094 C 350.566406 280.785156 350.585938 280.949219 350.585938 281.109375 C 350.585938 281.183594 350.582031 281.25 350.574219 281.324219 M 306.941406 240.152344 L 306.027344 235.230469 L 286.527344 130.125 L 286.128906 127.957031 L 285.28125 123.394531 C 285.164062 122.757812 285.304688 122.121094 285.644531 121.609375 C 285.675781 121.558594 285.710938 121.511719 285.75 121.460938 C 285.960938 121.1875 286.234375 120.957031 286.558594 120.792969 C 286.765625 120.683594 286.988281 120.613281 287.210938 120.570312 C 287.300781 120.554688 287.390625 120.542969 287.476562 120.539062 C 287.53125 120.535156 287.578125 120.53125 287.632812 120.53125 C 288.285156 120.53125 288.921875 120.800781 289.382812 121.308594 L 317.203125 151.695312 L 326.183594 161.511719 C 326.480469 161.839844 326.6875 162.238281 326.773438 162.671875 L 327.992188 168.726562 L 328.441406 170.949219 C 327.40625 169.679688 326.335938 168.433594 325.25 167.207031 L 324.429688 163.15625 L 287.632812 122.953125 L 309.238281 239.433594 C 309.175781 239.425781 309.113281 239.425781 309.042969 239.425781 C 308.710938 239.425781 308.375 239.496094 308.054688 239.644531 L 306.941406 240.152344"/><path fill="#A0DBEE" d="M 183.285156 253.582031 C 183.082031 253.582031 182.875 253.527344 182.691406 253.421875 C 182.359375 253.230469 182.140625 252.882812 182.097656 252.5 L 180.4375 236.09375 C 180.382812 235.578125 180.664062 235.085938 181.132812 234.871094 L 210.40625 221.453125 C 210.5625 221.375 210.730469 221.339844 210.898438 221.339844 C 211.085938 221.339844 211.273438 221.386719 211.441406 221.472656 C 211.769531 221.644531 212 221.949219 212.070312 222.3125 L 215.234375 238.023438 C 215.347656 238.574219 215.0625 239.132812 214.558594 239.363281 L 183.78125 253.476562 C 183.621094 253.546875 183.453125 253.582031 183.285156 253.582031"/><path fill="#2744A0" d="M 210.898438 220.128906 C 210.5625 220.128906 210.230469 220.207031 209.910156 220.347656 L 180.636719 233.773438 C 179.703125 234.203125 179.144531 235.1875 179.246094 236.21875 L 180.910156 252.621094 C 180.984375 253.394531 181.429688 254.082031 182.097656 254.472656 C 182.464844 254.683594 182.875 254.789062 183.285156 254.789062 C 183.621094 254.789062 183.960938 254.722656 184.277344 254.578125 L 215.046875 240.464844 C 216.066406 240 216.628906 238.886719 216.40625 237.78125 L 213.242188 222.070312 C 213.097656 221.347656 212.636719 220.730469 211.988281 220.398438 C 211.648438 220.222656 211.273438 220.128906 210.898438 220.128906 Z M 210.898438 222.554688 L 214.0625 238.265625 L 183.285156 252.375 L 181.625 235.972656 L 210.898438 222.554688"/><path fill="#2744A0" d="M 180.15625 226.425781 C 177.886719 221.367188 171.636719 219.273438 166.214844 221.753906 C 160.796875 224.238281 158.238281 230.375 160.507812 235.4375 C 162.773438 240.496094 169.03125 242.589844 174.449219 240.109375 C 179.867188 237.625 182.425781 231.484375 180.15625 226.425781"/><path fill="#2744A0" d="M 208.425781 213.460938 C 210.699219 218.523438 216.953125 220.617188 222.371094 218.132812 C 227.785156 215.648438 230.347656 209.515625 228.078125 204.457031 C 225.808594 199.398438 219.558594 197.304688 214.140625 199.789062 C 208.71875 202.269531 206.15625 208.402344 208.425781 213.460938"/><path fill="#FCE376" d="M 167.023438 239.84375 C 163.414062 239.84375 160.3125 237.921875 158.921875 234.832031 C 156.929688 230.378906 159.222656 224.960938 164.039062 222.753906 C 165.398438 222.125 166.828125 221.8125 168.292969 221.8125 C 171.902344 221.8125 175.011719 223.730469 176.390625 226.824219 C 177.371094 229.003906 177.363281 231.46875 176.375 233.765625 C 175.402344 236.019531 173.59375 237.84375 171.285156 238.90625 C 169.917969 239.527344 168.484375 239.84375 167.023438 239.84375"/><path fill="#2744A0" d="M 168.292969 220.601562 C 166.660156 220.601562 165.058594 220.957031 163.542969 221.652344 C 158.125 224.136719 155.566406 230.269531 157.832031 235.328125 C 159.417969 238.863281 162.941406 241.050781 167.023438 241.050781 C 168.660156 241.050781 170.257812 240.699219 171.777344 240.007812 C 174.355469 238.820312 176.378906 236.777344 177.46875 234.246094 C 178.597656 231.628906 178.601562 228.816406 177.480469 226.320312 C 175.898438 222.796875 172.378906 220.601562 168.292969 220.601562 Z M 168.292969 223.019531 C 171.308594 223.019531 174.085938 224.597656 175.300781 227.320312 C 177.035156 231.175781 175.011719 235.867188 170.789062 237.800781 C 169.554688 238.367188 168.269531 238.636719 167.023438 238.636719 C 164.007812 238.636719 161.238281 237.058594 160.011719 234.335938 C 158.289062 230.488281 160.308594 225.792969 164.53125 223.851562 C 165.765625 223.289062 167.046875 223.019531 168.292969 223.019531"/><path fill="#FCE376" d="M 214.945312 217.875 C 211.335938 217.875 208.234375 215.953125 206.847656 212.863281 C 204.847656 208.414062 207.140625 202.996094 211.957031 200.785156 C 213.320312 200.160156 214.753906 199.839844 216.210938 199.839844 C 219.828125 199.839844 222.929688 201.761719 224.320312 204.855469 C 225.292969 207.03125 225.289062 209.496094 224.296875 211.792969 C 223.324219 214.042969 221.519531 215.875 219.203125 216.929688 C 217.835938 217.558594 216.40625 217.875 214.945312 217.875"/><path fill="#2744A0" d="M 216.210938 198.632812 C 214.582031 198.632812 212.984375 198.984375 211.464844 199.683594 C 206.046875 202.164062 203.484375 208.304688 205.757812 213.363281 C 207.339844 216.890625 210.859375 219.085938 214.945312 219.085938 C 216.582031 219.085938 218.179688 218.730469 219.699219 218.03125 C 222.277344 216.851562 224.304688 214.804688 225.394531 212.277344 C 226.523438 209.664062 226.523438 206.847656 225.40625 204.355469 C 223.824219 200.824219 220.304688 198.632812 216.210938 198.632812 Z M 216.210938 201.050781 C 219.230469 201.050781 222.007812 202.625 223.230469 205.351562 C 224.953125 209.203125 222.929688 213.898438 218.710938 215.832031 C 217.472656 216.394531 216.191406 216.664062 214.945312 216.664062 C 211.929688 216.664062 209.15625 215.089844 207.9375 212.367188 C 206.207031 208.511719 208.230469 203.820312 212.453125 201.882812 C 213.6875 201.320312 214.964844 201.050781 216.210938 201.050781"/><path fill="#A0DBEE" d="M 316.171875 233.859375 C 313.625 233.859375 311.449219 229.546875 310.625 225.285156 C 309.742188 220.75 310.269531 215.644531 312.972656 215.105469 C 313.109375 215.078125 313.253906 215.066406 313.394531 215.066406 C 315.945312 215.066406 318.117188 219.375 318.945312 223.636719 C 319.40625 226.027344 319.476562 228.355469 319.125 230.199219 C 318.742188 232.289062 317.839844 233.574219 316.597656 233.820312 C 316.460938 233.84375 316.320312 233.859375 316.171875 233.859375"/><path fill="#2744A0" d="M 313.394531 214.273438 C 313.203125 214.273438 313.007812 214.289062 312.820312 214.328125 C 309.433594 215.003906 308.90625 220.5625 309.855469 225.4375 C 310.746094 230.023438 313.042969 234.652344 316.171875 234.652344 C 316.367188 234.652344 316.5625 234.632812 316.75 234.59375 C 317.667969 234.417969 319.289062 233.621094 319.898438 230.347656 C 320.261719 228.40625 320.199219 225.96875 319.714844 223.484375 C 318.828125 218.898438 316.527344 214.273438 313.394531 214.273438 Z M 313.394531 215.859375 C 315.210938 215.855469 317.304688 219.28125 318.175781 223.792969 C 319.09375 228.523438 318.320312 232.667969 316.449219 233.042969 C 316.355469 233.058594 316.265625 233.066406 316.171875 233.066406 C 314.363281 233.066406 312.269531 229.640625 311.398438 225.132812 C 310.472656 220.398438 311.25 216.257812 313.121094 215.886719 C 313.214844 215.867188 313.304688 215.859375 313.394531 215.859375"/><path fill="#A0DBEE" d="M 312.84375 207.265625 C 311.019531 207.265625 309.632812 204.390625 309.117188 201.714844 C 308.53125 198.6875 308.921875 195.429688 310.804688 195.054688 C 310.910156 195.035156 311.015625 195.023438 311.125 195.023438 C 312.949219 195.023438 314.335938 197.902344 314.855469 200.574219 C 315.324219 202.996094 315.140625 205.21875 314.371094 206.371094 C 313.972656 206.96875 313.496094 207.167969 313.164062 207.234375 C 313.0625 207.253906 312.957031 207.265625 312.84375 207.265625"/><path fill="#2744A0" d="M 311.125 194.234375 C 310.964844 194.234375 310.808594 194.25 310.652344 194.277344 C 308.140625 194.773438 307.683594 198.449219 308.347656 201.867188 C 308.898438 204.722656 310.410156 208.058594 312.84375 208.058594 C 313.003906 208.058594 313.164062 208.042969 313.320312 208.011719 C 313.789062 207.917969 314.472656 207.632812 315.023438 206.8125 C 315.914062 205.472656 316.136719 203.082031 315.625 200.421875 C 315.070312 197.570312 313.5625 194.234375 311.125 194.234375 Z M 311.125 195.816406 C 312.25 195.816406 313.546875 197.941406 314.082031 200.726562 C 314.65625 203.660156 314.175781 206.230469 313.015625 206.457031 L 312.84375 206.472656 C 311.722656 206.472656 310.425781 204.355469 309.886719 201.558594 C 309.320312 198.628906 309.796875 196.0625 310.953125 195.835938 L 311.125 195.816406"/><path fill="#8280C8" d="M 163.59375 368.011719 C 163.355469 368.011719 163.117188 367.941406 162.914062 367.796875 L 112.371094 332.699219 C 112.011719 332.453125 111.816406 332.03125 111.855469 331.59375 C 111.890625 331.160156 112.15625 330.78125 112.550781 330.601562 L 308.550781 240.742188 C 308.710938 240.667969 308.878906 240.636719 309.042969 240.636719 C 309.359375 240.636719 309.667969 240.757812 309.894531 240.996094 L 349.160156 281.273438 C 349.4375 281.554688 349.558594 281.953125 349.484375 282.339844 C 349.414062 282.730469 349.160156 283.058594 348.804688 283.21875 L 164.089844 367.90625 C 163.929688 367.976562 163.757812 368.011719 163.59375 368.011719"/><g clip-path="url(#a)"><path fill="#2744A0" d="M 309.042969 239.425781 C 308.710938 239.425781 308.375 239.496094 308.054688 239.644531 L 112.054688 329.5 C 111.273438 329.859375 110.738281 330.621094 110.664062 331.492188 C 110.585938 332.359375 110.976562 333.203125 111.691406 333.695312 L 162.238281 368.796875 C 162.644531 369.078125 163.117188 369.222656 163.59375 369.222656 C 163.929688 369.222656 164.265625 369.152344 164.578125 369.007812 L 349.300781 284.320312 C 350.007812 283.996094 350.519531 283.335938 350.664062 282.5625 C 350.804688 281.785156 350.5625 280.984375 350.011719 280.425781 L 310.75 240.144531 C 310.289062 239.675781 309.671875 239.425781 309.042969 239.425781 M 309.042969 241.84375 L 348.3125 282.117188 L 163.59375 366.804688 L 113.042969 331.703125 L 309.042969 241.84375"/></g><path fill="#A4A1D8" d="M 136.492188 350.917969 L 112.226562 334.066406 L 136.492188 350.914062 C 136.492188 350.917969 136.492188 350.917969 136.492188 350.917969"/><path fill="#7271C0" d="M 112.226562 334.066406 L 112.222656 334.0625 L 112.226562 334.066406"/><path fill="#2B3A99" d="M 112.222656 334.0625 L 111.691406 333.695312 L 112.222656 334.0625 M 110.664062 331.480469 C 110.707031 331.011719 110.882812 330.570312 111.164062 330.210938 C 110.882812 330.570312 110.707031 331.011719 110.664062 331.480469"/><path fill="#293E97" d="M 350.523438 281.199219 C 350.519531 281.195312 350.519531 281.1875 350.515625 281.183594 C 350.398438 280.902344 350.230469 280.644531 350.011719 280.425781 C 350.214844 280.625 350.371094 280.863281 350.488281 281.121094 C 350.5 281.148438 350.511719 281.171875 350.523438 281.199219"/><path fill="#5F61B6" d="M 136.316406 347.867188 L 113.042969 331.703125 L 117.675781 329.578125 C 124.574219 334.835938 133.070312 338.355469 140.855469 339.878906 C 142.492188 340.203125 144.082031 340.34375 145.632812 340.34375 C 154.585938 340.34375 162.308594 335.472656 170.15625 330.917969 C 175.523438 327.792969 181.203125 325.214844 186.75 322.4375 C 192.632812 319.496094 198.507812 316.542969 204.402344 313.632812 C 228.046875 301.960938 252.414062 291.996094 276.601562 281.539062 C 282.648438 278.921875 288.679688 276.257812 294.671875 273.511719 C 299.609375 271.253906 304.867188 269.214844 309.390625 266.171875 C 311.882812 264.492188 314.007812 262.191406 314.613281 259.148438 C 315.300781 255.667969 313.34375 251.980469 311.289062 249.359375 C 309.449219 247.007812 307.054688 245.359375 304.503906 243.925781 L 309.042969 241.84375 L 326.890625 260.148438 L 317.019531 264.671875 L 142.496094 344.683594 L 137.265625 347.082031 C 136.878906 347.261719 136.554688 347.527344 136.316406 347.867188"/><path fill="#293E9C" d="M 136.492188 350.914062 L 112.226562 334.066406 L 112.222656 334.0625 L 111.691406 333.695312 C 111.328125 333.441406 111.042969 333.09375 110.867188 332.699219 C 110.699219 332.328125 110.625 331.914062 110.664062 331.492188 C 110.664062 331.488281 110.664062 331.484375 110.664062 331.480469 C 110.707031 331.011719 110.882812 330.570312 111.164062 330.210938 C 111.164062 330.210938 111.164062 330.210938 111.164062 330.207031 C 111.398438 329.910156 111.699219 329.664062 112.054688 329.5 L 115.578125 327.886719 C 116.257812 328.46875 116.957031 329.035156 117.675781 329.578125 L 113.042969 331.703125 L 136.316406 347.867188 C 136.136719 348.121094 136.003906 348.410156 135.925781 348.722656 C 135.902344 348.835938 135.882812 348.953125 135.875 349.070312 C 135.863281 349.167969 135.863281 349.261719 135.863281 349.359375 C 135.875 349.679688 135.945312 349.992188 136.078125 350.28125 C 136.175781 350.511719 136.316406 350.726562 136.492188 350.914062 M 350.515625 281.183594 C 350.511719 281.175781 350.507812 281.167969 350.503906 281.160156 C 350.503906 281.15625 350.503906 281.15625 350.5 281.152344 C 350.421875 280.992188 350.324219 280.835938 350.210938 280.699219 C 350.164062 280.640625 350.113281 280.585938 350.0625 280.53125 L 343.484375 273.785156 L 330.34375 260.304688 C 329.882812 259.832031 329.261719 259.582031 328.636719 259.582031 C 328.300781 259.582031 327.964844 259.65625 327.648438 259.800781 L 326.890625 260.148438 L 309.042969 241.84375 L 304.503906 243.925781 C 303.625 243.429688 302.730469 242.964844 301.832031 242.496094 L 308.054688 239.644531 C 308.375 239.5 308.710938 239.425781 309.042969 239.425781 C 309.671875 239.425781 310.289062 239.675781 310.75 240.148438 L 350.011719 280.425781 C 350.230469 280.644531 350.398438 280.902344 350.515625 281.183594"/><path fill="#F7E88E" d="M 163.640625 368.125 C 163.402344 368.125 163.164062 368.050781 162.964844 367.914062 L 137.582031 350.28125 C 137.222656 350.035156 137.023438 349.613281 137.0625 349.175781 C 137.105469 348.746094 137.367188 348.367188 137.761719 348.183594 L 328.144531 260.902344 C 328.304688 260.828125 328.472656 260.796875 328.640625 260.796875 C 328.953125 260.796875 329.257812 260.917969 329.488281 261.15625 L 349.214844 281.378906 C 349.480469 281.660156 349.605469 282.0625 349.535156 282.445312 C 349.464844 282.835938 349.210938 283.167969 348.851562 283.328125 L 164.136719 368.015625 C 163.976562 368.085938 163.8125 368.125 163.640625 368.125"/><g clip-path="url(#b)"><path fill="#2744A0" d="M 328.640625 259.582031 C 328.304688 259.582031 327.96875 259.65625 327.648438 259.800781 L 137.265625 347.082031 C 136.480469 347.441406 135.945312 348.203125 135.875 349.070312 C 135.792969 349.941406 136.191406 350.785156 136.902344 351.277344 L 162.289062 368.910156 C 162.691406 369.1875 163.164062 369.332031 163.640625 369.332031 C 163.976562 369.332031 164.316406 369.261719 164.628906 369.117188 L 349.347656 284.429688 C 350.058594 284.105469 350.566406 283.445312 350.707031 282.667969 C 350.851562 281.890625 350.609375 281.09375 350.0625 280.53125 L 330.339844 260.304688 C 329.882812 259.832031 329.265625 259.582031 328.640625 259.582031 M 328.640625 262.003906 L 348.359375 282.226562 L 163.640625 366.914062 L 138.253906 349.285156 L 328.640625 262.003906"/></g><g clip-path="url(#c)"><path fill="#FCE376" d="M 164.351562 369.222656 C 164.445312 369.191406 164.539062 369.15625 164.628906 369.117188 L 349.347656 284.429688 C 349.355469 284.425781 349.363281 284.425781 349.371094 284.421875 C 349.363281 284.425781 349.355469 284.425781 349.347656 284.429688 L 164.632812 369.117188 C 164.539062 369.15625 164.449219 369.191406 164.351562 369.222656 M 162.660156 369.121094 C 162.53125 369.0625 162.40625 368.992188 162.289062 368.910156 L 136.902344 351.277344 C 136.75 351.171875 136.613281 351.050781 136.492188 350.917969 L 136.496094 350.921875 C 136.617188 351.054688 136.75 351.175781 136.902344 351.277344 L 162.289062 368.910156 C 162.40625 368.992188 162.53125 369.0625 162.660156 369.121094"/></g><path fill="#A49476" d="M 136.496094 350.921875 L 136.492188 350.917969 C 136.492188 350.917969 136.492188 350.917969 136.492188 350.914062 L 136.496094 350.917969 C 136.496094 350.917969 136.496094 350.917969 136.496094 350.921875"/><path fill="#2D3F69" d="M 136.496094 350.917969 L 136.492188 350.914062 C 136.316406 350.726562 136.175781 350.511719 136.078125 350.28125 C 135.945312 349.992188 135.875 349.679688 135.863281 349.359375 C 135.882812 349.941406 136.105469 350.492188 136.496094 350.917969"/><path fill="#625D70" d="M 136.316406 347.867188 C 136.554688 347.527344 136.878906 347.261719 137.265625 347.082031 L 142.496094 344.683594 L 137.265625 347.082031 C 136.878906 347.261719 136.558594 347.53125 136.316406 347.867188"/><path fill="#2D3F69" d="M 135.925781 348.722656 C 136.003906 348.410156 136.136719 348.121094 136.316406 347.867188 C 136.136719 348.121094 136.003906 348.410156 135.925781 348.722656"/><path fill="#FCE376" d="M 349.957031 284.03125 C 350.339844 283.679688 350.609375 283.199219 350.707031 282.667969 C 350.773438 282.328125 350.761719 281.984375 350.683594 281.660156 C 350.761719 281.988281 350.773438 282.328125 350.710938 282.671875 C 350.613281 283.199219 350.339844 283.679688 349.957031 284.03125"/><path fill="#2D3F69" d="M 350.503906 281.160156 C 350.503906 281.15625 350.503906 281.15625 350.5 281.152344 C 350.503906 281.15625 350.503906 281.15625 350.503906 281.160156 M 350.5 281.152344 C 350.421875 280.992188 350.324219 280.835938 350.210938 280.699219 C 350.324219 280.835938 350.421875 280.992188 350.5 281.152344"/><path fill="#625D70" d="M 317.019531 264.671875 L 326.890625 260.148438 L 317.019531 264.671875"/><path fill="#2D3F69" d="M 343.484375 273.785156 L 330.339844 260.304688 C 329.882812 259.832031 329.265625 259.582031 328.640625 259.582031 C 328.304688 259.582031 327.96875 259.65625 327.648438 259.800781 L 326.890625 260.148438 L 327.648438 259.800781 C 327.964844 259.65625 328.300781 259.582031 328.636719 259.582031 C 329.261719 259.582031 329.882812 259.832031 330.34375 260.304688 L 343.484375 273.785156"/><path fill="#F5D246" d="M 163.640625 366.914062 L 138.253906 349.285156 L 143.679688 346.796875 C 144.976562 349.082031 146.34375 351.320312 148.191406 353.277344 C 152.792969 358.152344 159.234375 359.878906 165.683594 359.878906 C 168.390625 359.878906 171.09375 359.574219 173.671875 359.070312 C 185.179688 356.816406 196.246094 351.886719 206.855469 346.988281 C 218.710938 341.507812 230.507812 335.875 242.355469 330.367188 C 254.253906 324.847656 266.121094 319.25 277.976562 313.644531 C 283.105469 311.214844 288.210938 308.730469 293.398438 306.410156 C 298.019531 304.339844 302.660156 302.296875 307.101562 299.84375 C 314.714844 295.644531 321.964844 289.371094 324.574219 280.683594 C 326.285156 275.003906 323.414062 269.953125 319.191406 266.332031 L 328.640625 262.003906 L 348.359375 282.226562 L 163.640625 366.914062"/><g clip-path="url(#d)"><path fill="#2B446B" d="M 163.640625 369.332031 C 163.304688 369.332031 162.972656 369.261719 162.660156 369.121094 C 162.53125 369.0625 162.40625 368.992188 162.289062 368.910156 L 136.902344 351.277344 C 136.75 351.175781 136.617188 351.054688 136.496094 350.921875 C 136.496094 350.917969 136.496094 350.917969 136.496094 350.917969 C 136.105469 350.492188 135.882812 349.941406 135.863281 349.359375 C 135.863281 349.261719 135.863281 349.167969 135.875 349.074219 C 135.882812 348.953125 135.902344 348.835938 135.925781 348.722656 C 136.003906 348.410156 136.136719 348.121094 136.316406 347.867188 C 136.558594 347.53125 136.878906 347.261719 137.265625 347.082031 L 142.496094 344.683594 C 142.894531 345.390625 143.28125 346.09375 143.679688 346.796875 L 138.253906 349.285156 L 163.640625 366.914062 L 348.359375 282.226562 L 328.640625 262.003906 L 319.191406 266.332031 C 318.5 265.742188 317.769531 265.1875 317.019531 264.671875 L 326.890625 260.148438 L 327.648438 259.800781 C 327.96875 259.65625 328.304688 259.582031 328.640625 259.582031 C 329.265625 259.582031 329.882812 259.832031 330.339844 260.304688 L 343.484375 273.785156 L 350.0625 280.535156 C 350.113281 280.589844 350.164062 280.640625 350.210938 280.699219 C 350.324219 280.835938 350.421875 280.992188 350.5 281.152344 C 350.503906 281.15625 350.503906 281.15625 350.503906 281.160156 C 350.515625 281.183594 350.527344 281.207031 350.539062 281.230469 C 350.597656 281.367188 350.648438 281.511719 350.683594 281.660156 C 350.761719 281.984375 350.773438 282.328125 350.707031 282.667969 C 350.609375 283.199219 350.339844 283.679688 349.957031 284.03125 C 349.78125 284.183594 349.585938 284.316406 349.371094 284.421875 C 349.363281 284.425781 349.355469 284.425781 349.347656 284.429688 L 164.628906 369.117188 C 164.539062 369.15625 164.445312 369.191406 164.351562 369.222656 C 164.117188 369.296875 163.878906 369.332031 163.640625 369.332031"/></g><path fill="#F7E88E" d="M 270.570312 279.890625 C 270.332031 279.890625 270.097656 279.820312 269.890625 279.679688 L 260.015625 272.816406 C 259.660156 272.570312 259.464844 272.152344 259.496094 271.714844 C 259.539062 271.285156 259.804688 270.902344 260.199219 270.71875 L 298.503906 253.160156 C 298.660156 253.089844 298.832031 253.050781 299 253.050781 C 299.234375 253.050781 299.476562 253.125 299.675781 253.265625 L 309.523438 260.140625 C 309.875 260.390625 310.074219 260.808594 310.035156 261.246094 C 309.992188 261.675781 309.730469 262.054688 309.335938 262.238281 L 271.0625 279.78125 C 270.90625 279.851562 270.734375 279.890625 270.570312 279.890625"/><path fill="#2744A0" d="M 299 251.84375 C 298.660156 251.84375 298.324219 251.914062 298.007812 252.058594 L 259.707031 269.621094 C 258.914062 269.980469 258.382812 270.742188 258.308594 271.609375 C 258.234375 272.476562 258.628906 273.320312 259.339844 273.816406 L 269.214844 280.675781 C 269.621094 280.957031 270.097656 281.097656 270.570312 281.097656 C 270.90625 281.097656 271.242188 281.027344 271.558594 280.882812 L 309.828125 263.335938 C 310.613281 262.976562 311.148438 262.21875 311.222656 261.351562 C 311.296875 260.480469 310.910156 259.640625 310.203125 259.144531 L 300.355469 252.269531 C 299.949219 251.988281 299.476562 251.84375 299 251.84375 Z M 299 254.257812 L 308.84375 261.136719 L 270.570312 278.683594 L 260.691406 271.820312 L 299 254.257812"/><path fill="#A0DBEE" d="M 218.933594 303.566406 C 218.699219 303.566406 218.460938 303.492188 218.257812 303.351562 L 208.378906 296.492188 C 208.019531 296.246094 207.824219 295.820312 207.863281 295.390625 C 207.90625 294.953125 208.171875 294.574219 208.5625 294.394531 L 246.867188 276.835938 C 247.027344 276.761719 247.195312 276.726562 247.359375 276.726562 C 247.589844 276.726562 247.816406 276.792969 248.019531 276.921875 L 258.183594 283.648438 C 258.546875 283.890625 258.757812 284.3125 258.722656 284.753906 C 258.6875 285.191406 258.417969 285.578125 258.023438 285.761719 L 219.429688 303.457031 C 219.269531 303.527344 219.101562 303.566406 218.933594 303.566406"/><path fill="#2744A0" d="M 247.359375 275.519531 C 247.027344 275.519531 246.6875 275.589844 246.375 275.734375 L 208.066406 293.292969 C 207.28125 293.65625 206.746094 294.414062 206.675781 295.285156 C 206.597656 296.152344 206.988281 296.996094 207.699219 297.488281 L 217.578125 304.347656 C 217.984375 304.628906 218.460938 304.773438 218.933594 304.773438 C 219.269531 304.773438 219.609375 304.703125 219.921875 304.558594 L 258.515625 286.863281 C 259.3125 286.496094 259.847656 285.726562 259.914062 284.847656 C 259.980469 283.964844 259.570312 283.121094 258.839844 282.636719 L 248.667969 275.910156 C 248.277344 275.648438 247.820312 275.519531 247.359375 275.519531 Z M 247.359375 277.933594 L 257.53125 284.660156 L 218.933594 302.359375 L 209.054688 295.496094 L 247.359375 277.933594"/><path fill="#A0DBEE" d="M 196.550781 346.835938 C 196.339844 346.835938 196.136719 346.773438 195.957031 346.652344 L 181.058594 336.304688 C 180.746094 336.085938 180.578125 335.722656 180.605469 335.339844 C 180.640625 334.960938 180.875 334.628906 181.214844 334.472656 L 292.960938 283.246094 C 293.097656 283.179688 293.242188 283.152344 293.390625 283.152344 C 293.664062 283.152344 293.933594 283.261719 294.132812 283.460938 L 305.710938 295.335938 C 305.949219 295.582031 306.054688 295.929688 305.996094 296.269531 C 305.925781 296.609375 305.710938 296.898438 305.394531 297.042969 L 196.980469 346.742188 C 196.84375 346.804688 196.695312 346.835938 196.550781 346.835938"/><path fill="#2744A0" d="M 293.390625 282.09375 C 293.097656 282.09375 292.804688 282.15625 292.527344 282.285156 L 180.785156 333.511719 C 180.101562 333.824219 179.632812 334.492188 179.570312 335.25 C 179.503906 336.007812 179.847656 336.742188 180.46875 337.175781 L 195.367188 347.519531 C 195.71875 347.765625 196.136719 347.890625 196.550781 347.890625 C 196.84375 347.890625 197.132812 347.832031 197.410156 347.703125 L 305.832031 298.003906 C 306.449219 297.714844 306.894531 297.144531 307.019531 296.464844 C 307.144531 295.785156 306.933594 295.085938 306.453125 294.59375 L 294.878906 282.722656 C 294.472656 282.3125 293.941406 282.09375 293.390625 282.09375 Z M 293.390625 284.207031 L 304.964844 296.078125 L 196.550781 345.78125 L 181.648438 335.433594 L 293.390625 284.207031"/><g clip-path="url(#e)"><path fill="#2744A0" d="M 328.640625 259.582031 C 328.304688 259.582031 327.96875 259.65625 327.648438 259.800781 L 137.265625 347.082031 C 136.480469 347.441406 135.945312 348.203125 135.875 349.070312 C 135.792969 349.941406 136.191406 350.785156 136.902344 351.277344 L 162.289062 368.910156 C 162.691406 369.1875 163.164062 369.332031 163.640625 369.332031 C 163.976562 369.332031 164.316406 369.261719 164.628906 369.117188 L 349.347656 284.429688 C 350.058594 284.105469 350.566406 283.445312 350.707031 282.667969 C 350.851562 281.890625 350.609375 281.09375 350.0625 280.53125 L 330.339844 260.304688 C 329.882812 259.832031 329.265625 259.582031 328.640625 259.582031 Z M 328.640625 262.003906 L 348.359375 282.226562 L 163.640625 366.914062 L 138.253906 349.285156 L 328.640625 262.003906"/></g><path fill="#2744A0" d="M 222.957031 159.472656 C 229.371094 156.53125 235.78125 153.585938 242.195312 150.648438 C 243.597656 150.003906 242.386719 147.921875 240.988281 148.5625 C 234.574219 151.5 228.164062 154.445312 221.746094 157.386719 C 220.347656 158.023438 221.5625 160.109375 222.957031 159.472656"/><path fill="#2744A0" d="M 247.113281 147.953125 C 248.6875 147.230469 250.261719 146.507812 251.835938 145.789062 C 253.238281 145.148438 252.023438 143.066406 250.625 143.703125 C 249.050781 144.417969 247.480469 145.140625 245.90625 145.867188 C 244.507812 146.507812 245.722656 148.597656 247.113281 147.953125"/><path fill="#2744A0" d="M 121.671875 320.070312 C 127.019531 317.589844 132.253906 314.867188 137.882812 313.070312 C 139.351562 312.605469 138.722656 310.273438 137.25 310.738281 C 131.421875 312.601562 126 315.417969 120.460938 317.984375 C 119.058594 318.632812 120.273438 320.714844 121.671875 320.070312"/><path fill="#2744A0" d="M 141.777344 311.882812 C 142.507812 311.550781 143.230469 311.21875 143.953125 310.886719 C 144.546875 310.613281 144.6875 309.757812 144.382812 309.230469 C 144.03125 308.621094 143.34375 308.527344 142.75 308.796875 C 142.023438 309.132812 141.300781 309.464844 140.570312 309.792969 C 139.976562 310.066406 139.839844 310.925781 140.136719 311.449219 C 140.496094 312.0625 141.183594 312.152344 141.777344 311.882812"/><path fill="#2744A0" d="M 299.496094 261.417969 C 295.382812 263.304688 291.269531 265.195312 287.152344 267.082031 C 285.753906 267.726562 286.964844 269.808594 288.359375 269.167969 C 292.472656 267.28125 296.589844 265.394531 300.699219 263.511719 C 302.105469 262.867188 300.886719 260.785156 299.496094 261.417969"/><path fill="#2744A0" d="M 283.785156 268.03125 C 282.332031 268.699219 280.882812 269.363281 279.429688 270.03125 C 278.027344 270.671875 279.242188 272.753906 280.632812 272.117188 C 282.089844 271.449219 283.542969 270.785156 284.992188 270.121094 C 286.394531 269.472656 285.175781 267.390625 283.785156 268.03125"/><path fill="#2744A0" d="M 220.480469 299.992188 C 223.386719 298.65625 226.289062 297.328125 229.191406 295.996094 C 230.597656 295.355469 229.382812 293.269531 227.988281 293.910156 C 225.082031 295.242188 222.179688 296.570312 219.273438 297.90625 C 217.867188 298.542969 219.085938 300.628906 220.480469 299.992188"/><path fill="#2744A0" d="M 234.761719 293.449219 C 235.324219 293.1875 235.886719 292.929688 236.457031 292.667969 C 237.050781 292.398438 237.1875 291.539062 236.882812 291.015625 C 236.53125 290.402344 235.84375 290.3125 235.25 290.582031 C 234.683594 290.839844 234.117188 291.097656 233.554688 291.359375 C 232.960938 291.632812 232.820312 292.484375 233.121094 293.011719 C 233.476562 293.625 234.167969 293.71875 234.761719 293.449219"/><path fill="#2744A0" d="M 199.242188 343.058594 C 201.820312 341.878906 204.40625 340.699219 206.984375 339.511719 C 208.390625 338.871094 207.171875 336.785156 205.777344 337.425781 C 203.199219 338.605469 200.617188 339.792969 198.035156 340.972656 C 196.632812 341.617188 197.847656 343.699219 199.242188 343.058594"/><path fill="#2744A0" d="M 212.226562 336.230469 C 218.519531 333.339844 224.808594 330.453125 231.101562 327.574219 C 232.511719 326.929688 231.289062 324.84375 229.894531 325.484375 C 223.601562 328.367188 217.3125 331.253906 211.019531 334.140625 C 209.617188 334.78125 210.832031 336.867188 212.226562 336.230469"/><path fill="#2744A0" d="M 103.199219 211.519531 C 104.949219 221.660156 104.945312 231.957031 105.683594 242.199219 C 105.792969 243.742188 108.1875 243.75 108.074219 242.199219 C 107.320312 231.734375 107.296875 221.234375 105.507812 210.875 C 105.242188 209.339844 102.9375 209.992188 103.199219 211.519531"/><path fill="#2744A0" d="M 106.355469 247.828125 C 106.753906 250.097656 107 252.398438 107.648438 254.613281 C 108.082031 256.105469 110.390625 255.472656 109.957031 253.972656 C 109.308594 251.757812 109.058594 249.457031 108.664062 247.191406 C 108.394531 245.65625 106.085938 246.308594 106.355469 247.828125"/><path fill="#2744A0" d="M 168.289062 226.015625 C 170.242188 227.011719 171.003906 228.90625 171.449219 230.96875 C 171.785156 232.492188 174.089844 231.847656 173.757812 230.328125 C 173.183594 227.683594 171.980469 225.191406 169.496094 223.929688 C 168.121094 223.226562 166.90625 225.3125 168.289062 226.015625"/><path fill="#2744A0" d="M 213.722656 204.269531 C 216.203125 203.015625 219.082031 204.082031 220.3125 206.550781 C 221.003906 207.945312 223.066406 206.71875 222.378906 205.332031 C 220.539062 201.636719 216.097656 200.367188 212.519531 202.179688 C 211.136719 202.878906 212.347656 204.960938 213.722656 204.269531"/><path fill="#2744A0" d="M 299.25 142.960938 C 303.382812 147.667969 307.933594 151.960938 312.296875 156.449219 C 313.382812 157.5625 315.074219 155.851562 313.988281 154.738281 C 309.625 150.253906 305.074219 145.960938 300.933594 141.253906 C 299.914062 140.082031 298.226562 141.800781 299.25 142.960938"/><path fill="#2744A0" d="M 316.785156 160.886719 C 317.199219 161.207031 317.652344 161.464844 318.058594 161.777344 C 318.578125 162.179688 319.394531 161.863281 319.699219 161.34375 C 320.054688 160.726562 319.785156 160.089844 319.265625 159.691406 C 318.855469 159.375 318.402344 159.117188 317.992188 158.800781 C 317.46875 158.402344 316.65625 158.71875 316.355469 159.238281 C 315.992188 159.855469 316.265625 160.488281 316.785156 160.886719"/><path fill="#2744A0" d="M 324.3125 251.835938 C 328.253906 254.851562 331.183594 258.957031 334.730469 262.398438 C 335.84375 263.472656 337.539062 261.769531 336.421875 260.683594 C 332.71875 257.089844 329.636719 252.898438 325.523438 249.75 C 324.292969 248.800781 323.101562 250.90625 324.3125 251.835938"/><path fill="#2744A0" d="M 339.105469 266.289062 C 339.980469 267.007812 340.875 267.742188 341.554688 268.671875 C 341.941406 269.199219 342.582031 269.460938 343.195312 269.101562 C 343.707031 268.796875 344.007812 267.976562 343.617188 267.449219 C 342.804688 266.339844 341.851562 265.445312 340.796875 264.578125 C 340.292969 264.164062 339.601562 264.078125 339.105469 264.578125 C 338.679688 265.007812 338.597656 265.871094 339.105469 266.289062"/><path fill="#2744A0" d="M 318.40625 228.714844 C 325.5625 225.132812 332.972656 222.070312 340.289062 218.84375 C 343.636719 217.367188 346.933594 215.644531 350.425781 214.535156 C 358.074219 212.113281 364.878906 217.222656 361.996094 225.210938 C 360.144531 230.351562 368.238281 232.546875 370.070312 227.460938 C 374.824219 214.269531 363.554688 203.265625 350.3125 205.945312 C 344.207031 207.183594 338.476562 210.472656 332.792969 212.972656 C 326.566406 215.714844 320.273438 218.359375 314.183594 221.410156 C 309.34375 223.828125 313.585938 231.125 318.40625 228.714844"/></svg>