<svg xmlns="http://www.w3.org/2000/svg" xmlns:xlink="http://www.w3.org/1999/xlink" width="450" viewBox="0 0 450 450" height="450" version="1.0"><defs><g id="c"><path d="M 57.335938 -70.523438 C 55.996094 -71.667969 54.371094 -72.433594 52.652344 -73.101562 C 48.351562 -74.917969 44.242188 -75.683594 39.65625 -74.535156 C 35.261719 -73.390625 31.054688 -71.097656 27.710938 -68.039062 C 25.417969 -65.9375 21.40625 -62.398438 20.925781 -59.054688 L 21.597656 -60.011719 C 20.640625 -58.195312 19.972656 -56.378906 19.589844 -54.660156 C 19.492188 -54.660156 19.78125 -56.1875 19.875 -56.1875 C 18.347656 -56.1875 18.824219 -50.359375 18.921875 -49.5 C 19.113281 -45.582031 20.164062 -41.566406 21.691406 -37.9375 C 23.792969 -32.96875 26.085938 -28.09375 28 -23.125 L 29.71875 -18.824219 C 29.910156 -18.15625 30.195312 -17.390625 30.484375 -16.722656 C 30.578125 -16.722656 30.960938 -15.957031 30.960938 -16.054688 C 31.054688 -15.289062 31.246094 -14.714844 31.4375 -14.046875 C 31.246094 -14.523438 30.867188 -15.195312 30.867188 -15.574219 C 30.675781 -14.90625 31.246094 -14.046875 31.4375 -13.570312 C 31.628906 -12.613281 31.726562 -11.753906 31.726562 -10.796875 C 31.535156 -8.3125 30.675781 -5.925781 29.433594 -3.824219 C 26.949219 0.285156 22.839844 3.632812 18.25 5.066406 C 14.90625 6.019531 10.796875 6.019531 9.269531 2.390625 C 7.929688 -0.574219 8.503906 -4.203125 9.171875 -7.261719 C 9.554688 -8.984375 10.035156 -10.703125 10.796875 -12.328125 C 11.371094 -13.855469 14.429688 -17.964844 13.570312 -19.492188 C 11.46875 -23.222656 4.394531 -13.855469 3.441406 -12.328125 C -0.574219 -5.828125 -2.484375 4.777344 5.734375 8.984375 C 11.46875 11.847656 19.015625 11.371094 24.75 9.078125 C 26.757812 8.3125 35.453125 4.683594 35.355469 1.816406 L 33.445312 3.152344 C 40.039062 -2.582031 42.714844 -9.554688 40.132812 -18.15625 C 38.890625 -22.167969 36.597656 -25.417969 34.402344 -28.953125 C 32.777344 -31.820312 32.300781 -34.59375 30.960938 -37.554688 C 32.777344 -33.921875 34.972656 -30.386719 36.886719 -26.757812 C 32.96875 -35.738281 25.417969 -46.441406 30.484375 -56.476562 C 32.777344 -60.964844 36.886719 -64.691406 41.378906 -66.890625 C 43.957031 -68.132812 47.015625 -69.183594 49.976562 -69.089844 C 53.511719 -68.800781 52.75 -66.507812 52.75 -64.121094 C 52.941406 -65.554688 53.800781 -67.082031 52.367188 -68.515625 C 51.027344 -69.664062 48.832031 -69.28125 47.207031 -68.992188 C 43.480469 -68.324219 40.039062 -66.796875 37.078125 -64.597656 C 39.179688 -66.222656 41.566406 -67.558594 44.050781 -68.421875 C 46.25 -69.183594 49.5 -70.140625 51.699219 -69.183594 C 57.144531 -66.699219 50.167969 -56.285156 47.589844 -52.75 C 48.066406 -53.609375 48.832031 -55.234375 49.023438 -55.425781 C 47.683594 -55.519531 45.007812 -48.832031 44.339844 -48.449219 C 42.046875 -46.058594 44.816406 -45.773438 46.726562 -46.917969 C 48.832031 -48.160156 50.550781 -50.167969 52.175781 -51.792969 C 54.371094 -54.085938 56.378906 -56.476562 58.101562 -59.054688 C 59.246094 -60.777344 61.347656 -63.546875 60.203125 -65.648438 C 59.4375 -67.464844 58.960938 -69.183594 57.335938 -70.523438 Z M 3.917969 6.878906 C -1.050781 0.667969 1.242188 -7.550781 5.734375 -13.664062 C 1.816406 -8.027344 0.191406 2.199219 3.917969 6.878906 Z M 28.570312 -48.734375 C 28.667969 -48.257812 28.570312 -47.78125 28.570312 -47.398438 Z M 28.570312 -48.734375"/></g><g id="d"><path d="M 36.597656 -23.601562 C 36.597656 -23.507812 36.597656 -23.507812 36.503906 -23.601562 L 36.503906 -23.699219 C 34.972656 -26.277344 32.96875 -22.742188 32.109375 -21.5 C 30.484375 -19.304688 28.953125 -17.199219 27.234375 -15.195312 C 25.800781 -13.472656 24.273438 -11.753906 23.125 -9.9375 C 23.125 -9.746094 22.933594 -9.269531 22.933594 -9.269531 C 22.550781 -8.695312 21.980469 -8.21875 21.5 -7.644531 C 20.640625 -6.785156 19.78125 -5.828125 18.824219 -4.96875 C 17.390625 -3.632812 9.363281 3.917969 8.3125 -0.957031 C 7.742188 -3.34375 8.503906 -6.308594 8.984375 -8.601562 C 9.269531 -9.84375 9.554688 -10.988281 9.746094 -12.230469 C 9.9375 -13.1875 9.652344 -14.144531 10.128906 -15.097656 C 10.414062 -15.671875 10.511719 -15.574219 11.179688 -15.765625 L 12.804688 -16.339844 C 13.855469 -16.722656 14.90625 -17.105469 15.863281 -17.679688 C 17.296875 -18.539062 18.632812 -19.589844 19.875 -20.640625 C 22.839844 -23.125 25.992188 -26.085938 27.234375 -29.8125 C 27.902344 -31.917969 28 -34.210938 26.660156 -36.027344 C 25.417969 -37.648438 23.316406 -38.511719 21.40625 -38.890625 C 16.246094 -39.847656 12.328125 -36.886719 9.363281 -32.96875 C 5.734375 -28.476562 3.152344 -22.933594 1.910156 -17.296875 C 1.242188 -14.523438 0.859375 -11.753906 0.382812 -8.886719 C -0.09375 -6.019531 -0.382812 -3.34375 1.148438 -0.667969 C 1.050781 -1.625 0.859375 -2.484375 0.859375 -3.34375 C 0.859375 -3.824219 1.050781 -4.300781 1.050781 -4.683594 C 1.050781 -4.875 0.859375 -5.445312 0.859375 -5.734375 C 0.859375 -6.59375 1.050781 -7.261719 1.242188 -8.121094 C 1.335938 -8.984375 1.242188 -9.84375 1.335938 -10.703125 C 1.433594 -11.65625 1.816406 -12.421875 2.199219 -13.28125 C 2.484375 -14.046875 2.582031 -14.714844 2.867188 -15.480469 C 3.152344 -16.148438 3.34375 -16.914062 3.632812 -17.679688 C 3.726562 -18.15625 4.203125 -18.730469 4.492188 -19.304688 C 4.203125 -18.441406 3.632812 -17.679688 3.441406 -16.914062 C 3.152344 -15.765625 3.34375 -14.523438 3.25 -13.378906 C 3.058594 -12.136719 2.675781 -10.894531 2.484375 -9.554688 C 2.292969 -8.3125 1.71875 -7.167969 1.527344 -5.925781 C 1.335938 -4.777344 0.957031 -3.917969 1.050781 -2.769531 C 1.050781 -2.101562 1.148438 -1.433594 1.242188 -0.859375 C 1.335938 -0.09375 1.816406 0.382812 2.292969 0.957031 C 3.917969 2.867188 6.117188 4.394531 8.601562 5.066406 C 10.320312 5.542969 11.847656 5.445312 13.472656 4.585938 C 15.765625 3.34375 17.773438 1.433594 19.492188 -0.382812 C 21.117188 -2.199219 22.359375 -4.203125 23.792969 -6.117188 C 25.132812 -7.835938 26.757812 -9.460938 28.09375 -11.179688 L 33.253906 -17.871094 L 36.214844 -21.789062 C 36.695312 -22.359375 36.980469 -22.839844 36.597656 -23.601562 Z M 12.902344 -22.550781 C 12.996094 -22.742188 12.996094 -22.839844 12.996094 -22.839844 C 14.429688 -25.894531 15.480469 -29.144531 17.488281 -32.109375 L 19.207031 -34.402344 C 19.589844 -34.878906 20.257812 -35.738281 20.925781 -35.929688 C 22.359375 -36.214844 22.742188 -33.730469 22.648438 -32.777344 L 22.265625 -30.769531 C 22.167969 -30.195312 22.359375 -29.8125 22.265625 -29.335938 C 22.074219 -28.761719 21.597656 -28.476562 21.308594 -28 L 19.683594 -25.894531 C 17.488281 -23.316406 14.714844 -21.117188 11.65625 -19.492188 C 12.136719 -20.546875 12.421875 -21.597656 12.902344 -22.550781 Z M 12.902344 -22.550781"/></g><g id="e"><path d="M 39.5625 -22.742188 C 39.082031 -25.035156 37.746094 -23.507812 37.171875 -22.648438 C 35.835938 -21.023438 33.730469 -19.492188 32.109375 -17.964844 C 29.910156 -16.054688 27.710938 -14.046875 25.417969 -12.230469 C 24.273438 -11.277344 22.839844 -9.9375 21.40625 -9.460938 C 21.214844 -9.363281 20.546875 -9.269531 20.546875 -9.171875 L 20.449219 -9.269531 C 20.449219 -9.269531 20.355469 -10.796875 20.449219 -10.894531 C 20.546875 -12.136719 20.925781 -13.378906 21.308594 -14.523438 C 21.40625 -14.714844 22.457031 -17.964844 22.265625 -17.964844 L 21.789062 -17.390625 C 22.359375 -18.539062 23.125 -19.683594 23.792969 -20.925781 C 22.265625 -19.492188 21.214844 -17.871094 20.449219 -15.863281 C 20.066406 -14.90625 19.015625 -13.1875 18.824219 -11.753906 C 19.015625 -13.855469 20.449219 -16.628906 21.117188 -17.871094 C 22.074219 -19.875 23.125 -22.167969 24.367188 -24.082031 C 26.660156 -27.519531 31.628906 -30.675781 30.101562 -35.453125 C 28.761719 -39.945312 25.226562 -40.039062 22.457031 -37.460938 C 21.117188 -36.214844 9.746094 -21.691406 10.035156 -21.5 C 10.035156 -21.5 10.988281 -22.648438 12.230469 -24.273438 L 6.59375 -16.054688 C 6.496094 -16.054688 7.550781 -17.679688 7.453125 -17.773438 C 7.359375 -17.871094 6.6875 -17.199219 6.59375 -16.816406 C 6.785156 -18.824219 7.453125 -20.832031 7.644531 -22.839844 C 7.742188 -23.601562 7.644531 -24.175781 7.835938 -24.941406 C 8.21875 -26.183594 8.601562 -27.519531 9.171875 -28.570312 C 9.554688 -29.335938 10.320312 -30.003906 10.511719 -30.769531 C 10.894531 -32.011719 10.796875 -32.488281 11.65625 -33.542969 C 12.421875 -34.496094 13.570312 -35.453125 14.238281 -36.3125 C 15.863281 -38.703125 13.089844 -40.324219 11.5625 -40.613281 C 10.320312 -40.804688 9.078125 -40.898438 7.929688 -40.230469 C 6.6875 -39.464844 6.976562 -38.796875 6.6875 -37.746094 C 6.402344 -36.40625 5.445312 -34.878906 4.96875 -33.636719 C 4.203125 -31.628906 3.535156 -29.625 2.867188 -27.617188 C 2.101562 -25.609375 1.335938 -23.699219 0.765625 -21.691406 C 0.285156 -20.066406 0.382812 -18.539062 0.191406 -17.007812 C 0 -15.289062 -0.285156 -14.144531 0.574219 -12.613281 C 1.527344 -10.988281 4.109375 -8.503906 5.828125 -10.605469 L 6.210938 -9.84375 C 7.835938 -13.378906 10.320312 -16.53125 12.328125 -19.972656 C 13.1875 -21.5 14.714844 -22.550781 15.957031 -24.175781 C 17.679688 -26.46875 19.207031 -28.761719 21.117188 -30.960938 C 20.832031 -30.484375 19.589844 -28.285156 19.683594 -28.191406 C 19.875 -28.285156 19.972656 -28.476562 20.164062 -28.667969 L 18.824219 -25.992188 C 18.730469 -26.085938 19.207031 -26.757812 19.015625 -26.757812 C 18.347656 -26.949219 16.339844 -21.597656 16.148438 -21.117188 C 15.480469 -19.015625 15.386719 -17.105469 15.195312 -14.90625 C 15.097656 -13.855469 14.90625 -12.804688 14.90625 -11.753906 C 14.90625 -10.703125 15.003906 -9.652344 15.480469 -8.601562 C 15.765625 -8.027344 16.148438 -7.261719 16.628906 -6.785156 C 16.722656 -6.785156 17.773438 -5.828125 17.296875 -6.59375 L 17.871094 -6.019531 L 17.582031 -6.210938 C 17.488281 -5.734375 21.023438 -3.824219 21.597656 -3.632812 C 24.273438 -2.769531 27.140625 -5.828125 28.859375 -7.644531 C 31.152344 -10.128906 33.0625 -12.996094 35.164062 -15.671875 C 36.3125 -17.199219 39.945312 -20.449219 39.5625 -22.742188 Z M 39.5625 -22.742188"/></g><g id="f"><path d="M 38.796875 -49.691406 C 38.703125 -51.027344 37.269531 -49.976562 36.503906 -49.976562 C 32.679688 -49.785156 28.859375 -49.785156 25.132812 -49.59375 C 25.132812 -49.691406 25.324219 -50.074219 25.609375 -50.644531 C 25.226562 -49.976562 24.941406 -49.59375 24.652344 -49.59375 C 27.519531 -55.425781 30.578125 -61.253906 34.210938 -66.605469 C 34.113281 -66.414062 32.679688 -64.023438 32.777344 -64.023438 C 33.0625 -63.929688 36.597656 -68.800781 36.695312 -69.472656 C 36.695312 -69.851562 35.835938 -68.898438 35.835938 -68.992188 C 36.40625 -69.566406 37.363281 -70.042969 37.648438 -70.808594 C 38.320312 -72.71875 36.3125 -73.582031 34.878906 -73.867188 C 31.917969 -74.441406 28.570312 -74.058594 26.660156 -71.574219 C 24.84375 -69.375 23.507812 -66.796875 22.359375 -64.214844 C 21.789062 -63.070312 21.023438 -62.78125 20.257812 -61.730469 C 19.113281 -60.105469 18.347656 -58.195312 17.488281 -56.378906 C 16.722656 -54.753906 15.957031 -53.035156 15.289062 -51.316406 C 14.90625 -50.453125 14.90625 -49.785156 14.046875 -49.5 C 13.1875 -49.117188 11.5625 -49.402344 10.605469 -49.308594 C 6.878906 -48.832031 3.25 -49.023438 -0.476562 -48.640625 C -2.390625 -48.542969 -4.300781 -48.542969 -6.117188 -47.875 C -6.496094 -47.78125 -8.601562 -47.300781 -8.792969 -47.015625 C -9.363281 -45.964844 -7.070312 -45.867188 -6.59375 -45.773438 C -2.960938 -45.292969 1.625 -44.914062 5.253906 -45.582031 C 7.742188 -46.058594 10.320312 -45.867188 12.996094 -46.058594 C 11.65625 -43.191406 10.605469 -40.132812 9.554688 -37.078125 L 8.410156 -33.730469 C 8.027344 -32.679688 6.785156 -30.675781 6.785156 -29.527344 C 6.785156 -29.335938 7.070312 -29.8125 7.261719 -30.292969 C 6.785156 -28.859375 6.210938 -27.425781 5.828125 -25.992188 C 5.828125 -26.085938 6.117188 -27.234375 6.019531 -27.234375 C 5.542969 -27.234375 3.632812 -21.40625 3.441406 -20.925781 C 2.484375 -18.0625 1.433594 -15.195312 0.957031 -12.136719 C 0.382812 -9.078125 -0.382812 -6.117188 -1.050781 -3.152344 C -1.433594 -1.625 -1.816406 -0.191406 -2.007812 1.335938 C -2.199219 2.101562 -2.390625 2.960938 -2.390625 3.726562 C -2.390625 3.917969 -2.390625 5.160156 -2.199219 4.777344 L -2.390625 6.6875 L -2.390625 5.253906 C -2.960938 5.925781 -2.390625 8.984375 -2.292969 9.554688 C -1.910156 11.46875 -0.957031 13.1875 0.765625 14.332031 C 2.292969 15.480469 4.683594 16.53125 6.496094 15.671875 C 8.886719 14.523438 10.894531 11.847656 12.421875 9.9375 C 15.765625 6.019531 18.824219 1.910156 21.882812 -2.199219 C 24.652344 -6.019531 27.519531 -9.746094 29.910156 -13.761719 C 31.246094 -16.054688 33.828125 -18.15625 34.6875 -20.734375 C 35.164062 -21.980469 34.878906 -23.507812 33.351562 -23.222656 C 32.109375 -22.933594 30.386719 -19.589844 29.625 -18.632812 C 26.183594 -14.332031 22.933594 -9.9375 19.492188 -5.636719 L 13.953125 1.148438 C 13.089844 2.101562 12.230469 3.152344 11.277344 4.109375 C 10.894531 4.585938 8.503906 6.496094 8.601562 7.070312 C 8.601562 7.261719 9.652344 6.402344 10.035156 6.117188 C 9.554688 6.6875 8.984375 7.167969 8.503906 7.644531 C 8.601562 7.550781 6.59375 8.695312 6.308594 8.503906 C 4.492188 7.742188 6.117188 2.199219 6.402344 0.859375 C 8.121094 -6.878906 10.703125 -14.714844 13.28125 -22.167969 C 14.8125 -26.277344 16.339844 -30.195312 18.0625 -34.210938 C 18.921875 -36.214844 19.78125 -38.320312 20.734375 -40.324219 L 22.074219 -43.957031 L 21.023438 -41.855469 C 21.691406 -43.574219 22.648438 -46.15625 23.222656 -46.25 L 22.933594 -45.675781 C 23.125 -45.964844 23.316406 -46.15625 23.507812 -46.25 C 24.558594 -46.917969 27.234375 -46.25 28.476562 -46.25 C 29.335938 -46.25 30.386719 -46.15625 31.246094 -46.441406 C 31.820312 -46.632812 31.628906 -46.917969 32.300781 -47.109375 C 33.445312 -47.300781 34.878906 -46.539062 36.121094 -46.917969 C 37.269531 -47.207031 38.890625 -48.257812 38.796875 -49.59375 Z M 20.640625 -44.148438 C 16.339844 -35.070312 13.089844 -25.324219 9.652344 -15.863281 C 8.027344 -11.5625 6.496094 -7.070312 5.445312 -2.582031 L 4.96875 -0.765625 C 5.636719 -4.203125 6.402344 -7.550781 7.359375 -10.894531 C 9.460938 -18.25 12.136719 -25.515625 15.289062 -32.488281 C 20.640625 -44.433594 25.417969 -57.238281 33.0625 -68.039062 C 27.902344 -60.679688 24.464844 -52.269531 20.640625 -44.148438 Z M 26.949219 -53.609375 L 29.242188 -58.003906 C 28.761719 -57.910156 27.902344 -55.804688 26.949219 -53.609375 Z M 17.105469 -32.777344 C 16.4375 -30.960938 15.671875 -29.242188 14.90625 -27.519531 C 15.671875 -29.335938 16.339844 -31.246094 17.199219 -33.160156 C 17.105469 -32.96875 17.105469 -32.871094 17.105469 -32.777344 Z M 25.707031 -50.835938 L 26.660156 -52.941406 C 26.375 -52.175781 25.992188 -51.410156 25.707031 -50.835938 Z M 4.875 9.363281 C 4.777344 9.363281 4.683594 9.269531 4.585938 9.171875 Z M 4.875 9.363281"/></g><g id="g"><path d="M 25.035156 -23.507812 C 24.84375 -24.75 23.507812 -24.367188 22.839844 -23.890625 C 21.980469 -23.316406 17.199219 -17.007812 17.582031 -16.53125 C 17.871094 -16.53125 18.0625 -16.53125 18.25 -16.722656 C 16.914062 -15.097656 14.429688 -13.28125 12.613281 -11.847656 C 11.5625 -10.988281 8.984375 -8.601562 7.453125 -9.363281 C 4.203125 -10.988281 10.796875 -22.457031 10.511719 -22.550781 C 10.226562 -22.648438 7.835938 -17.296875 7.359375 -16.054688 C 8.503906 -19.398438 10.035156 -22.742188 11.847656 -25.707031 C 11.753906 -25.417969 11.46875 -24.941406 11.65625 -24.941406 C 11.847656 -24.84375 13.28125 -26.851562 12.996094 -27.042969 C 12.902344 -27.042969 12.710938 -27.042969 12.613281 -26.949219 C 12.902344 -27.234375 13.378906 -27.328125 13.378906 -27.902344 C 13.378906 -28.859375 11.179688 -29.8125 10.414062 -30.101562 C 8.601562 -30.867188 6.785156 -31.054688 5.351562 -30.101562 C 3.441406 -28.953125 3.058594 -26.660156 2.292969 -24.652344 C 2.101562 -24.082031 0.285156 -17.296875 0.667969 -17.199219 C 0.859375 -17.296875 0.859375 -17.390625 0.957031 -17.582031 L 0.667969 -15.863281 C 0.574219 -15.863281 0.765625 -16.339844 0.574219 -16.339844 C -0.191406 -16.339844 0 -12.902344 0.09375 -12.421875 C 0.476562 -10.703125 1.816406 -9.460938 2.867188 -8.027344 C 3.441406 -7.167969 4.011719 -6.308594 4.875 -5.734375 C 6.019531 -4.875 5.253906 -5.734375 6.019531 -5.351562 L 5.828125 -5.351562 C 5.734375 -4.777344 9.363281 -3.824219 10.128906 -3.917969 C 13.472656 -4.683594 15.863281 -8.792969 17.773438 -11.371094 C 19.589844 -13.664062 21.117188 -15.957031 22.742188 -18.347656 C 23.699219 -19.589844 25.417969 -21.691406 25.035156 -23.507812 Z M 8.3125 -35.546875 C 8.503906 -35.261719 8.21875 -34.878906 8.886719 -34.496094 C 9.554688 -34.210938 9.9375 -34.59375 10.511719 -34.785156 C 11.65625 -35.261719 12.519531 -36.503906 13.378906 -37.269531 C 13.664062 -37.460938 13.089844 -37.363281 13.089844 -37.363281 C 14.332031 -38.511719 13.28125 -37.171875 14.429688 -37.839844 C 15.574219 -38.605469 15.765625 -39.847656 16.722656 -40.898438 C 15.574219 -40.421875 14.714844 -39.753906 13.953125 -38.796875 C 12.996094 -37.554688 12.328125 -36.980469 11.277344 -36.3125 C 12.421875 -37.171875 12.996094 -38.03125 13.953125 -39.5625 C 14.238281 -39.847656 14.523438 -40.039062 14.90625 -40.230469 C 14.621094 -40.515625 14.621094 -40.804688 15.003906 -41.089844 C 15.289062 -41.566406 15.863281 -41.757812 16.148438 -42.238281 C 16.628906 -42.90625 16.53125 -43.765625 17.105469 -44.433594 C 17.582031 -44.816406 18.25 -45.105469 18.632812 -45.484375 C 19.492188 -46.25 20.449219 -47.683594 20.066406 -48.925781 C 19.683594 -50.074219 18.730469 -51.507812 17.679688 -52.175781 C 16.4375 -52.84375 14.714844 -53.128906 13.378906 -52.558594 C 13.089844 -52.460938 11.945312 -52.175781 12.328125 -51.792969 C 12.421875 -51.601562 12.519531 -51.601562 12.710938 -51.601562 C 11.847656 -50.933594 10.414062 -49.785156 12.421875 -49.023438 C 12.230469 -48.832031 12.421875 -47.96875 12.421875 -47.875 C 12.328125 -47.207031 10.988281 -43.671875 10.128906 -41.949219 L 11.277344 -43.671875 C 10.605469 -42.238281 9.84375 -40.898438 8.984375 -39.753906 C 9.554688 -40.996094 8.410156 -39.5625 8.410156 -39.273438 C 7.359375 -39.753906 7.644531 -36.789062 7.742188 -36.503906 C 7.742188 -36.40625 8.3125 -35.546875 8.3125 -35.546875 Z M 6.496094 -12.804688 L 6.496094 -12.710938 L 6.308594 -12.136719 L 6.496094 -12.902344 C 6.59375 -12.996094 6.59375 -12.996094 6.496094 -12.804688 Z M 9.652344 -41.1875 C 9.652344 -41.1875 9.84375 -41.378906 10.035156 -41.757812 Z M 8.695312 -39.371094 C 8.695312 -39.273438 8.695312 -39.273438 8.601562 -39.179688 C 8.601562 -39.179688 8.601562 -39.273438 8.503906 -39.273438 C 8.601562 -39.273438 8.601562 -39.273438 8.695312 -39.371094 Z M 8.695312 -39.371094"/></g><g id="h"><path d="M 58.101562 -22.933594 C 58.101562 -22.933594 58.195312 -22.839844 58.101562 -23.03125 C 57.429688 -25.132812 53.226562 -19.398438 52.75 -18.824219 C 50.265625 -15.863281 47.78125 -12.804688 45.199219 -9.9375 C 44.148438 -8.792969 40.421875 -3.632812 38.605469 -4.011719 C 37.746094 -4.203125 38.414062 -8.792969 38.414062 -8.792969 C 38.222656 -8.601562 38.128906 -8.410156 38.03125 -8.21875 C 38.796875 -11.847656 40.996094 -16.148438 42.523438 -19.78125 C 44.148438 -23.890625 46.539062 -29.242188 45.292969 -33.828125 C 43.863281 -39.082031 38.414062 -36.40625 35.835938 -33.921875 C 34.878906 -32.96875 26.949219 -22.648438 27.042969 -21.980469 L 28.953125 -24.558594 C 27.425781 -22.167969 25.992188 -19.875 24.84375 -17.488281 C 25.800781 -20.832031 26.757812 -24.273438 27.902344 -27.617188 C 28.761719 -29.910156 30.195312 -32.300781 30.867188 -34.6875 C 31.628906 -37.746094 28.953125 -41.949219 25.515625 -41.472656 C 23.03125 -41.1875 20.925781 -38.320312 19.683594 -36.3125 C 18.15625 -33.828125 16.339844 -31.535156 14.8125 -29.144531 C 12.996094 -26.183594 11.46875 -22.933594 9.9375 -19.875 C 8.601562 -17.390625 7.929688 -14.523438 6.496094 -12.230469 C 6.6875 -13.28125 6.308594 -14.046875 6.308594 -15.003906 C 6.308594 -15.863281 6.6875 -16.914062 6.878906 -17.773438 C 7.167969 -19.113281 7.929688 -20.257812 8.21875 -21.597656 C 8.410156 -22.265625 8.21875 -22.550781 8.410156 -23.222656 C 8.503906 -23.699219 8.984375 -24.273438 9.269531 -24.652344 C 9.9375 -25.609375 10.796875 -26.46875 11.371094 -27.425781 C 11.46875 -27.617188 11.65625 -27.808594 11.65625 -28 C 12.039062 -29.335938 11.085938 -29.8125 10.605469 -30.484375 C 10.128906 -31.054688 9.652344 -32.300781 8.886719 -32.96875 C 8.3125 -33.445312 7.359375 -34.019531 6.6875 -33.730469 C 5.828125 -33.351562 6.210938 -32.871094 5.925781 -32.394531 C 5.542969 -31.4375 4.777344 -30.675781 4.300781 -29.8125 C 3.535156 -28.191406 2.867188 -26.566406 2.390625 -24.941406 C 1.242188 -21.597656 -0.09375 -18.15625 0.09375 -14.621094 C 0.191406 -11.945312 -0.574219 -9.746094 1.433594 -7.359375 C 2.390625 -6.210938 6.117188 -3.726562 7.070312 -5.445312 C 7.167969 -5.636719 7.261719 -6.402344 7.261719 -6.6875 C 7.550781 -7.644531 8.21875 -8.503906 8.601562 -9.460938 C 9.554688 -11.371094 10.414062 -13.378906 11.46875 -15.386719 C 14.144531 -20.449219 16.148438 -25.324219 19.304688 -30.195312 C 20.257812 -31.628906 21.40625 -33.0625 22.550781 -34.402344 C 22.839844 -34.6875 24.273438 -36.695312 24.464844 -36.597656 C 25.992188 -36.503906 22.933594 -30.675781 22.648438 -29.625 C 21.40625 -26.375 19.207031 -23.03125 18.824219 -19.589844 C 18.730469 -18.441406 19.015625 -18.0625 18.730469 -17.007812 C 18.441406 -15.863281 17.964844 -14.621094 18.0625 -13.378906 C 18.25 -12.230469 18.730469 -11.179688 19.589844 -10.414062 C 22.648438 -7.453125 23.890625 -10.894531 25.226562 -13.1875 C 26.851562 -15.863281 28.382812 -19.683594 30.386719 -21.691406 C 33.542969 -24.75 35.164062 -28.859375 38.320312 -31.820312 C 37.839844 -30.769531 35.164062 -24.273438 35.261719 -24.175781 C 35.453125 -24.367188 35.546875 -24.558594 35.644531 -24.75 C 35.261719 -23.699219 34.878906 -22.742188 34.59375 -21.789062 C 34.402344 -21.882812 34.785156 -22.648438 34.6875 -22.648438 C 34.113281 -22.742188 32.394531 -17.390625 32.300781 -17.007812 C 31.628906 -15.097656 31.34375 -13.28125 31.34375 -11.277344 C 31.34375 -9.460938 31.34375 -7.644531 31.628906 -5.734375 C 31.820312 -4.585938 32.109375 -3.34375 32.679688 -2.292969 C 32.871094 -1.816406 34.210938 -0.476562 34.210938 -0.667969 C 34.304688 -0.476562 34.304688 -0.285156 34.496094 -0.191406 L 34.402344 -0.285156 C 34.210938 0.476562 38.222656 1.816406 38.890625 1.71875 C 42.238281 1.625 45.582031 -2.867188 47.398438 -5.253906 C 50.074219 -8.503906 52.460938 -12.039062 54.851562 -15.480469 C 56.09375 -17.296875 58.671875 -20.449219 58.101562 -22.933594 Z M 23.792969 -29.242188 L 23.890625 -29.242188 C 23.792969 -29.144531 23.699219 -28.953125 23.699219 -28.953125 C 22.550781 -26.566406 21.980469 -23.792969 21.023438 -21.214844 C 20.257812 -19.304688 19.304688 -17.007812 19.113281 -14.90625 C 19.113281 -17.105469 19.78125 -19.683594 20.449219 -21.597656 C 21.214844 -23.890625 22.359375 -26.085938 23.316406 -28.285156 C 23.699219 -29.050781 25.992188 -34.972656 25.609375 -36.503906 C 26.183594 -35.164062 24.464844 -30.675781 23.890625 -29.242188 L 23.890625 -29.335938 Z M 23.792969 -29.242188"/></g><g id="i"><path d="M 42.332031 -22.742188 C 42.238281 -23.507812 41.472656 -24.273438 40.707031 -23.984375 C 39.753906 -23.699219 38.128906 -20.546875 37.554688 -19.683594 C 36.121094 -17.679688 34.59375 -15.671875 33.0625 -13.664062 C 32.679688 -13.1875 29.71875 -8.886719 29.71875 -8.886719 C 30.003906 -8.984375 30.195312 -9.171875 30.386719 -9.269531 C 28 -6.402344 24.273438 -3.34375 21.214844 -0.957031 C 20.257812 -0.09375 17.964844 2.484375 16.339844 1.625 C 14.8125 0.957031 14.523438 -2.484375 14.332031 -3.917969 C 14.144531 -5.734375 14.621094 -6.117188 15.671875 -7.453125 C 16.339844 -8.410156 16.816406 -9.460938 17.390625 -10.511719 C 17.871094 -11.371094 23.601562 -19.015625 25.800781 -21.308594 C 24.464844 -20.066406 22.074219 -17.488281 21.691406 -17.105469 C 23.792969 -19.589844 26.183594 -22.648438 29.242188 -23.984375 C 29.242188 -23.984375 28.382812 -23.410156 28.382812 -23.316406 C 28.476562 -23.222656 30.675781 -23.792969 30.578125 -24.175781 C 30.386719 -24.273438 30.292969 -24.273438 30.195312 -24.273438 C 30.769531 -24.464844 31.152344 -23.890625 31.726562 -24.464844 C 32.679688 -25.515625 31.152344 -26.757812 30.195312 -26.851562 C 29.910156 -26.949219 29.625 -26.851562 29.335938 -26.851562 C 27.710938 -26.757812 27.042969 -25.609375 25.992188 -25.035156 C 24.84375 -24.464844 24.273438 -24.652344 23.125 -23.410156 C 22.359375 -22.648438 16.914062 -15.480469 17.105469 -15.289062 C 17.296875 -15.289062 17.390625 -15.386719 17.488281 -15.480469 L 16.53125 -14.144531 C 16.4375 -14.332031 16.816406 -14.523438 16.628906 -14.621094 C 16.246094 -14.8125 14.144531 -12.039062 14.046875 -11.945312 C 14.046875 -12.613281 14.332031 -19.78125 14.332031 -19.78125 C 13.761719 -19.78125 14.238281 -12.230469 13.761719 -11.46875 C 13.761719 -16.054688 14.046875 -20.640625 14.523438 -25.226562 C 14.523438 -25.226562 14.429688 -23.601562 14.523438 -23.601562 C 14.90625 -23.601562 15.195312 -27.234375 15.003906 -27.234375 C 14.8125 -27.140625 14.714844 -26.949219 14.714844 -26.851562 C 14.8125 -27.617188 15.480469 -27.902344 15.195312 -28.859375 C 14.8125 -29.910156 13.664062 -30.386719 12.710938 -30.484375 C 11.371094 -30.675781 10.035156 -30.195312 8.984375 -29.527344 C 7.167969 -28.570312 6.878906 -27.519531 6.210938 -25.894531 C 5.734375 -24.558594 5.253906 -23.601562 5.160156 -21.882812 C 5.066406 -19.972656 5.253906 -17.964844 5.351562 -15.957031 C 5.351562 -15.097656 6.402344 -5.253906 6.785156 -5.351562 C 6.878906 -5.542969 6.878906 -5.734375 6.878906 -5.925781 L 7.453125 -3.535156 C 7.261719 -3.535156 7.261719 -4.109375 7.070312 -4.109375 C 6.976562 -4.011719 7.261719 -2.769531 7.261719 -2.582031 C 7.070312 -1.816406 6.59375 -1.433594 6.019531 -0.765625 C 4.96875 0.476562 4.109375 1.816406 3.058594 2.960938 C 2.101562 3.824219 1.148438 4.683594 0 5.253906 C -0.574219 5.542969 -1.527344 5.734375 -1.910156 6.308594 C -3.441406 8.410156 -0.285156 9.460938 1.335938 8.792969 C 4.394531 7.644531 6.878906 4.394531 8.695312 1.816406 C 9.9375 4.203125 13.089844 6.308594 15.671875 6.496094 C 16.054688 6.496094 16.246094 6.59375 16.53125 6.496094 C 17.105469 6.496094 17.582031 6.308594 18.0625 6.117188 C 18.15625 6.019531 19.78125 4.875 19.207031 4.96875 L 19.683594 4.777344 L 19.492188 4.96875 C 19.683594 5.066406 21.789062 3.34375 21.980469 3.152344 C 23.507812 2.390625 24.84375 1.527344 26.183594 0.382812 C 28.761719 -2.007812 30.867188 -4.96875 32.96875 -7.644531 C 35.164062 -10.414062 37.078125 -12.996094 38.796875 -15.957031 C 39.945312 -17.871094 42.429688 -20.164062 42.332031 -22.742188 Z M 13.953125 -5.351562 L 13.953125 -4.683594 C 14.046875 -3.824219 14.144531 -2.960938 14.332031 -2.101562 C 14.046875 -3.152344 13.570312 -4.96875 13.953125 -5.351562 Z M 13.953125 -5.351562"/></g><clipPath id="a"><path d="M 105 304.121094 L 334.273438 304.121094 L 334.273438 441.503906 L 105 441.503906 Z M 105 304.121094"/></clipPath><clipPath id="b"><path d="M 25.746094 54.503906 L 423.878906 54.503906 L 423.878906 311 L 25.746094 311 Z M 25.746094 54.503906"/></clipPath></defs><g clip-path="url(#a)"><path fill="#261311" d="M 193.300781 309.929688 C 193.300781 309.929688 180.972656 340.105469 146.824219 346.640625 C 121.648438 351.457031 105.046875 375.875 110.480469 400.941406 C 110.617188 401.570312 110.761719 402.207031 110.914062 402.855469 C 121.390625 447.304688 181.585938 437.296875 204.90625 410.910156 C 208.597656 406.730469 208.597656 405.746094 205.179688 400.589844 C 196.71875 387.832031 174.664062 356.578125 201.976562 353.792969 C 201.976562 353.792969 214.179688 353.820312 217.722656 363.027344 C 217.914062 363.515625 218.574219 363.578125 218.824219 363.117188 C 220.972656 359.214844 228.335938 348.21875 240.046875 355.285156 C 252.660156 362.890625 235.253906 393.0625 225.398438 403.328125 C 221.746094 407.125 219.824219 412.351562 220.585938 417.566406 C 221.867188 426.320312 230.382812 436.441406 264.230469 433.882812 C 321.679688 429.535156 297.085938 389.972656 292.171875 381.5 C 287.25 373.023438 286.582031 355.863281 299.28125 352.125 C 311.980469 348.386719 338.777344 347.734375 326.820312 335.714844 C 317.226562 326.082031 279.042969 338.152344 264.273438 343.316406 C 258.992188 345.160156 251.164062 345.492188 248.144531 340.777344 C 244.519531 335.136719 247.363281 324.105469 270.921875 313.035156 L 275.328125 310.007812 L 282.449219 310.019531 L 286.496094 310.03125 C 286.496094 310.03125 265.5 323.589844 261.964844 326.410156 C 261.964844 326.410156 253.085938 332.332031 253.082031 335.863281 C 253.078125 336.847656 255.582031 343.324219 275.347656 335.609375 C 295.105469 327.890625 316.265625 322.996094 328.242188 327.960938 C 328.242188 327.960938 336.695312 332.210938 333.148438 341.375 C 333.148438 341.375 337.128906 356.097656 303.496094 358.101562 C 300.265625 358.296875 297.148438 359.628906 294.980469 362.039062 C 293.171875 364.050781 291.859375 366.9375 292.800781 370.882812 C 294.992188 380.09375 303.425781 393.511719 304.820312 399.867188 C 306.21875 406.21875 315.304688 444.335938 253.257812 441.378906 C 253.257812 441.378906 222.234375 443.429688 218.050781 420.140625 C 218.050781 420.140625 217.359375 413.085938 220.195312 406.738281 C 223.027344 400.398438 242.816406 378.570312 239.320312 365.867188 C 235.820312 353.160156 221.679688 372.953125 221.679688 372.953125 C 221.679688 372.953125 216.457031 378.671875 211.828125 369.25 C 210.214844 365.972656 207.042969 363.652344 203.394531 363.367188 C 203.097656 363.34375 202.761719 363.347656 202.390625 363.371094 C 197.5625 363.722656 194.300781 368.367188 195.285156 373.109375 C 195.734375 375.296875 196.636719 377.941406 198.394531 380.589844 C 198.394531 380.589844 207.265625 396.035156 208.925781 399.660156 C 210.070312 402.148438 211.003906 404.167969 210.960938 406.261719 C 210.847656 411.917969 206.925781 423.804688 181.484375 434.734375 C 181.484375 434.734375 126.292969 463.679688 106.6875 400.148438 C 106.6875 400.148438 100.53125 377.097656 114.210938 360.285156 C 114.644531 359.75 115.089844 359.230469 115.515625 358.6875 C 117.773438 355.789062 129.488281 341.96875 150.621094 337.609375 C 150.621094 337.609375 173.285156 334.703125 188.128906 304.179688 L 193.300781 309.929688"/></g><g clip-path="url(#b)"><path fill="#F57996" d="M 285.242188 171.710938 C 285.265625 160.023438 294.761719 150.570312 306.449219 150.59375 C 318.132812 150.617188 327.59375 160.113281 327.566406 171.804688 C 327.539062 183.5 318.042969 192.960938 306.355469 192.933594 C 294.667969 192.90625 285.214844 183.40625 285.242188 171.710938 Z M 121.539062 171.660156 C 121.566406 159.96875 131.0625 150.507812 142.75 150.527344 C 154.4375 150.554688 163.886719 160.054688 163.859375 171.75 C 163.832031 183.441406 154.34375 192.902344 142.65625 192.878906 C 130.972656 192.855469 121.515625 183.351562 121.539062 171.660156 Z M 414.046875 55.3125 L 36.128906 54.503906 C 30.691406 54.492188 26.265625 58.902344 26.253906 64.34375 L 25.746094 300.167969 C 25.738281 305.609375 30.144531 310.03125 35.582031 310.042969 L 413.5 310.847656 C 418.945312 310.863281 423.363281 306.460938 423.375 301.019531 L 423.878906 65.195312 C 423.890625 59.753906 419.492188 55.324219 414.046875 55.3125"/></g><path fill="#FEF0F2" d="M 49.253906 68.960938 C 49.246094 73.363281 45.675781 76.914062 41.277344 76.90625 C 36.882812 76.898438 33.328125 73.328125 33.339844 68.929688 C 33.347656 64.535156 36.917969 60.976562 41.316406 60.984375 C 45.707031 60.996094 49.265625 64.566406 49.253906 68.960938"/><path fill="#44454A" d="M 41.230469 63.210938 C 41.710938 64.167969 41.957031 65.125 42.136719 66.082031 C 42.308594 67.039062 42.386719 67.996094 42.382812 68.949219 C 42.382812 69.902344 42.300781 70.859375 42.128906 71.8125 C 41.945312 72.769531 41.695312 73.722656 41.203125 74.679688 C 40.71875 73.722656 40.46875 72.765625 40.292969 71.808594 C 40.125 70.851562 40.046875 69.898438 40.050781 68.945312 C 40.054688 67.988281 40.136719 67.035156 40.308594 66.078125 C 40.492188 65.121094 40.742188 64.167969 41.230469 63.210938"/><path fill="#44454A" d="M 47.023438 69.121094 C 46.070312 69.605469 45.113281 69.851562 44.160156 70.035156 C 43.203125 70.203125 42.25 70.28125 41.292969 70.28125 C 40.339844 70.28125 39.382812 70.199219 38.429688 70.023438 C 37.476562 69.839844 36.519531 69.585938 35.566406 69.101562 C 36.523438 68.613281 37.480469 68.363281 38.433594 68.183594 C 39.386719 68.015625 40.34375 67.9375 41.300781 67.941406 C 42.253906 67.945312 43.207031 68.027344 44.164062 68.203125 C 45.117188 68.386719 46.074219 68.640625 47.023438 69.121094"/><path fill="#FCFCFC" d="M 285.242188 171.710938 C 285.265625 160.023438 294.761719 150.570312 306.449219 150.59375 C 318.132812 150.617188 327.59375 160.113281 327.566406 171.804688 C 327.539062 183.5 318.042969 192.960938 306.355469 192.933594 C 294.667969 192.90625 285.214844 183.40625 285.242188 171.710938 Z M 121.539062 171.660156 C 121.566406 159.96875 131.0625 150.507812 142.75 150.527344 C 154.4375 150.554688 163.886719 160.054688 163.859375 171.75 C 163.832031 183.441406 154.34375 192.902344 142.65625 192.878906 C 130.972656 192.855469 121.515625 183.351562 121.539062 171.660156 Z M 385.15625 78.191406 L 64.550781 77.507812 C 59.933594 77.496094 56.1875 80.199219 56.179688 83.542969 L 55.871094 228.445312 C 55.863281 231.796875 59.601562 234.515625 64.21875 234.527344 L 384.820312 235.214844 C 389.4375 235.222656 393.1875 232.519531 393.191406 229.167969 L 393.5 84.265625 C 393.507812 80.921875 389.769531 78.203125 385.15625 78.191406"/><path fill="#7AC5DD" d="M 285.242188 171.710938 C 285.265625 160.023438 294.761719 150.570312 306.449219 150.59375 C 318.132812 150.617188 327.59375 160.113281 327.566406 171.804688 C 327.539062 183.5 318.042969 192.960938 306.355469 192.933594 C 294.667969 192.90625 285.214844 183.40625 285.242188 171.710938 Z M 163.859375 171.75 C 163.832031 183.441406 154.34375 192.902344 142.65625 192.878906 C 130.972656 192.855469 121.515625 183.351562 121.539062 171.660156 C 121.566406 159.96875 131.0625 150.507812 142.75 150.527344 C 154.4375 150.554688 163.886719 160.054688 163.859375 171.75 Z M 380.648438 82.300781 L 69.046875 81.632812 C 64.558594 81.625 60.914062 84.175781 60.910156 87.351562 L 60.617188 224.660156 C 60.609375 227.832031 64.238281 230.410156 68.726562 230.421875 L 380.328125 231.085938 C 384.8125 231.09375 388.453125 228.53125 388.460938 225.359375 L 388.753906 88.050781 C 388.761719 84.878906 385.128906 82.308594 380.648438 82.300781"/><path fill="#FEF0F2" d="M 48.769531 295.015625 C 48.761719 299.414062 45.191406 302.972656 40.792969 302.960938 C 36.402344 302.953125 32.84375 299.382812 32.855469 294.984375 C 32.867188 290.589844 36.433594 287.03125 40.832031 287.042969 C 45.222656 287.050781 48.78125 290.621094 48.769531 295.015625"/><path fill="#44454A" d="M 40.746094 289.265625 C 41.226562 290.222656 41.476562 291.183594 41.652344 292.136719 C 41.824219 293.09375 41.902344 294.050781 41.902344 295.003906 C 41.902344 295.957031 41.816406 296.914062 41.644531 297.867188 C 41.464844 298.824219 41.210938 299.777344 40.71875 300.734375 C 40.234375 299.777344 39.988281 298.820312 39.808594 297.863281 C 39.640625 296.910156 39.5625 295.953125 39.566406 295 C 39.570312 294.046875 39.652344 293.089844 39.824219 292.132812 C 40.007812 291.175781 40.257812 290.222656 40.746094 289.265625"/><path fill="#44454A" d="M 46.539062 295.175781 C 45.585938 295.660156 44.628906 295.910156 43.675781 296.089844 C 42.722656 296.257812 41.765625 296.335938 40.808594 296.335938 C 39.855469 296.335938 38.902344 296.253906 37.945312 296.078125 C 36.992188 295.894531 36.035156 295.640625 35.085938 295.15625 C 36.039062 294.671875 36.996094 294.417969 37.949219 294.242188 C 38.90625 294.070312 39.859375 293.992188 40.816406 294 C 41.769531 294 42.722656 294.082031 43.679688 294.257812 C 44.632812 294.441406 45.589844 294.691406 46.539062 295.175781"/><path fill="#FEF0F2" d="M 418.078125 70.265625 C 418.066406 74.660156 414.496094 78.21875 410.101562 78.210938 C 405.707031 78.199219 402.152344 74.625 402.160156 70.230469 C 402.171875 65.832031 405.742188 62.277344 410.136719 62.285156 C 414.527344 62.296875 418.085938 65.871094 418.078125 70.265625"/><path fill="#44454A" d="M 410.050781 64.515625 C 410.535156 65.472656 410.78125 66.429688 410.960938 67.382812 C 411.128906 68.339844 411.207031 69.292969 411.207031 70.25 C 411.207031 71.207031 411.125 72.160156 410.949219 73.117188 C 410.769531 74.074219 410.515625 75.023438 410.027344 75.980469 C 409.542969 75.023438 409.292969 74.070312 409.117188 73.113281 C 408.945312 72.15625 408.867188 71.199219 408.871094 70.246094 C 408.875 69.289062 408.957031 68.332031 409.132812 67.378906 C 409.3125 66.425781 409.566406 65.472656 410.050781 64.515625"/><path fill="#44454A" d="M 415.847656 70.425781 C 414.890625 70.910156 413.9375 71.15625 412.980469 71.332031 C 412.027344 71.503906 411.070312 71.582031 410.117188 71.582031 C 409.160156 71.582031 408.207031 71.5 407.253906 71.324219 C 406.296875 71.144531 405.339844 70.890625 404.390625 70.398438 C 405.34375 69.914062 406.300781 69.664062 407.257812 69.488281 C 408.214844 69.320312 409.164062 69.242188 410.121094 69.246094 C 411.078125 69.25 412.03125 69.332031 412.984375 69.503906 C 413.9375 69.6875 414.894531 69.941406 415.847656 70.425781"/><path fill="#FEF0F2" d="M 417.59375 296.320312 C 417.582031 300.71875 414.011719 304.273438 409.621094 304.265625 C 405.222656 304.253906 401.671875 300.683594 401.679688 296.285156 C 401.6875 291.890625 405.261719 288.332031 409.652344 288.339844 C 414.046875 288.351562 417.601562 291.925781 417.59375 296.320312"/><path fill="#44454A" d="M 409.566406 290.570312 C 410.050781 291.527344 410.300781 292.484375 410.476562 293.4375 C 410.644531 294.394531 410.722656 295.351562 410.722656 296.304688 C 410.722656 297.261719 410.640625 298.21875 410.46875 299.171875 C 410.285156 300.125 410.03125 301.078125 409.542969 302.035156 C 409.0625 301.078125 408.808594 300.121094 408.632812 299.167969 C 408.460938 298.214844 408.382812 297.257812 408.386719 296.300781 C 408.390625 295.34375 408.472656 294.390625 408.648438 293.433594 C 408.832031 292.480469 409.082031 291.527344 409.566406 290.570312"/><path fill="#44454A" d="M 415.367188 296.480469 C 414.410156 296.964844 413.453125 297.207031 412.5 297.390625 C 411.542969 297.558594 410.585938 297.636719 409.632812 297.636719 C 408.679688 297.636719 407.722656 297.554688 406.769531 297.378906 C 405.8125 297.199219 404.863281 296.945312 403.90625 296.457031 C 404.863281 295.96875 405.816406 295.722656 406.773438 295.542969 C 407.730469 295.375 408.683594 295.296875 409.636719 295.300781 C 410.59375 295.304688 411.546875 295.386719 412.503906 295.558594 C 413.457031 295.742188 414.410156 295.996094 415.367188 296.480469"/><path fill="#FCFCFC" d="M 121.539062 171.660156 C 121.566406 159.96875 131.0625 150.507812 142.75 150.527344 C 154.4375 150.554688 163.886719 160.054688 163.859375 171.75 C 163.832031 183.441406 154.34375 192.902344 142.65625 192.878906 C 130.972656 192.855469 121.515625 183.351562 121.539062 171.660156 Z M 306.355469 192.933594 C 294.667969 192.90625 285.214844 183.40625 285.242188 171.710938 C 285.265625 160.023438 294.761719 150.570312 306.449219 150.59375 C 318.132812 150.617188 327.59375 160.113281 327.566406 171.804688 C 327.539062 183.5 318.042969 192.960938 306.355469 192.933594 Z M 304.429688 129.472656 L 144.554688 129.128906 C 132.753906 129.105469 122.015625 133.910156 114.21875 141.679688 C 106.429688 149.441406 101.578125 160.164062 101.550781 171.96875 C 101.5 195.582031 120.773438 214.941406 144.367188 214.996094 L 304.25 215.335938 C 316.050781 215.363281 326.785156 210.550781 334.578125 202.789062 C 342.371094 195.023438 347.226562 184.300781 347.25 172.496094 C 347.300781 148.878906 328.035156 129.523438 304.429688 129.472656"/><path fill="#EE709B" d="M 306.355469 192.933594 C 294.667969 192.90625 285.214844 183.40625 285.242188 171.710938 C 285.265625 160.023438 294.761719 150.570312 306.449219 150.59375 C 318.132812 150.617188 327.59375 160.113281 327.566406 171.804688 C 327.539062 183.5 318.042969 192.960938 306.355469 192.933594 Z M 142.65625 192.878906 C 130.972656 192.855469 121.515625 183.351562 121.539062 171.660156 C 121.566406 159.96875 131.0625 150.507812 142.75 150.527344 C 154.4375 150.554688 163.886719 160.054688 163.859375 171.75 C 163.832031 183.441406 154.34375 192.902344 142.65625 192.878906 Z M 303.242188 136.527344 L 145.128906 136.191406 C 135.429688 136.167969 126.601562 140.121094 120.199219 146.507812 C 113.789062 152.886719 109.800781 161.703125 109.78125 171.402344 C 109.742188 190.8125 125.582031 206.722656 144.980469 206.761719 L 303.089844 207.101562 C 312.792969 207.121094 321.617188 203.171875 328.019531 196.792969 C 334.433594 190.40625 338.417969 181.597656 338.4375 171.894531 C 338.480469 152.488281 322.640625 136.570312 303.242188 136.527344"/><path fill="#FEF0F2" d="M 201.070312 149.628906 L 246.214844 149.726562 L 246.117188 194.128906 L 200.976562 194.03125 L 201.070312 149.628906"/><path fill="#261311" d="M 273.535156 148.699219 L 273.433594 195.546875 C 273.433594 195.878906 273.160156 196.15625 272.824219 196.15625 L 243.023438 196.09375 L 239.351562 192.261719 C 229.097656 175.183594 239.4375 151.683594 239.4375 151.683594 L 242.5 148.019531 L 272.925781 148.085938 C 273.257812 148.085938 273.535156 148.363281 273.535156 148.699219"/><path fill="#261311" d="M 210.570312 192.199219 C 209.773438 193.628906 208.929688 194.894531 208.070312 196.019531 L 176.179688 195.949219 C 175.839844 195.949219 175.570312 195.671875 175.570312 195.335938 L 175.667969 148.488281 C 175.667969 148.15625 175.945312 147.875 176.28125 147.878906 L 204.5 147.9375 L 210.65625 151.625 C 210.65625 151.625 221.511719 172.816406 210.570312 192.199219"/><path transform="matrix(.09522 0 0 -.09527 25.748 441.542)" fill="none" d="M 2550.138099 2615.82243 L 1627.025898 2617.790453 C 1621.282854 2617.790453 1616.647398 2622.50551 1616.647398 2628.204578 L 1617.508854 3033.330422 C 1617.549876 3039.02949 1622.226354 3043.744547 1627.928376 3043.744547 L 2551.040577 3041.735523 C 2556.742599 3041.735523 2561.460099 3037.061467 2561.460099 3031.321398 L 2560.557621 2626.195554 C 2560.557621 2620.496486 2555.840121 2615.781429 2550.138099 2615.82243 Z M 2550.138099 2615.82243" stroke="#2D2E32" stroke-width="56.693" stroke-miterlimit="10"/><path transform="matrix(.09522 0 0 -.09527 25.748 441.542)" fill="none" d="M 2602.153665 3073.715905 L 2601.087099 2581.997025 C 2601.087099 2578.511984 2598.215578 2575.600949 2594.687708 2575.600949 L 1579.768854 2577.773975 C 1576.199963 2577.773975 1573.369463 2580.68501 1573.369463 2584.211052 L 1574.395006 3075.929932 C 1574.395006 3079.414973 1577.30755 3082.367008 1580.835419 3082.326008 L 2595.754273 3080.152982 C 2599.241121 3080.152982 2602.153665 3077.241947 2602.153665 3073.715905 Z M 2602.153665 3073.715905" stroke="#44454A" stroke-width="56.693" stroke-miterlimit="10"/><path fill="#2F3030" d="M 142.476562 151.839844 C 131.617188 151.816406 122.769531 160.632812 122.742188 171.496094 C 122.71875 182.355469 131.535156 191.210938 142.390625 191.234375 C 153.246094 191.257812 162.097656 182.441406 162.117188 171.578125 C 162.140625 160.71875 153.328125 151.863281 142.476562 151.839844 Z M 142.378906 195.90625 C 128.949219 195.878906 118.042969 184.925781 118.074219 171.484375 C 118.105469 158.046875 129.054688 147.140625 142.484375 147.167969 C 155.914062 147.195312 166.816406 158.152344 166.789062 171.589844 C 166.761719 185.023438 155.808594 195.9375 142.378906 195.90625"/><path fill="#2F3030" d="M 141.957031 159.300781 L 141.472656 159.300781 C 140.300781 159.296875 139.339844 158.332031 139.34375 157.160156 L 139.355469 151.234375 C 139.359375 150.0625 140.320312 149.105469 141.492188 149.109375 L 141.980469 149.109375 C 143.15625 149.109375 144.113281 150.070312 144.113281 151.246094 L 144.097656 157.171875 C 144.09375 158.34375 143.132812 159.304688 141.957031 159.300781"/><path fill="#2F3030" d="M 151.898438 162.386719 L 151.519531 162.074219 C 150.617188 161.324219 150.492188 159.972656 151.242188 159.070312 L 155.027344 154.511719 C 155.777344 153.605469 157.128906 153.484375 158.027344 154.230469 L 158.40625 154.542969 C 159.308594 155.292969 159.433594 156.648438 158.683594 157.550781 L 154.898438 162.105469 C 154.152344 163.011719 152.796875 163.136719 151.898438 162.386719"/><path fill="#2F3030" d="M 127.078125 155.578125 L 126.765625 155.835938 C 125.863281 156.582031 125.730469 157.933594 126.476562 158.839844 L 130.125 163.277344 C 130.875 164.183594 132.222656 164.3125 133.132812 163.566406 L 133.445312 163.308594 C 134.347656 162.566406 134.476562 161.214844 133.734375 160.304688 L 130.082031 155.871094 C 129.335938 154.960938 127.988281 154.832031 127.078125 155.578125"/><path fill="#2F3030" d="M 141.566406 184.105469 L 141.078125 184.101562 C 139.90625 184.101562 138.945312 185.058594 138.941406 186.234375 L 138.929688 192.160156 C 138.925781 193.332031 139.882812 194.296875 141.058594 194.296875 L 141.546875 194.300781 C 142.71875 194.300781 143.679688 193.34375 143.683594 192.167969 L 143.695312 186.242188 C 143.699219 185.070312 142.738281 184.105469 141.566406 184.105469"/><path fill="#2F3030" d="M 151.519531 180.722656 L 151.136719 181.03125 C 150.234375 181.78125 150.105469 183.128906 150.847656 184.035156 L 154.613281 188.613281 C 155.355469 189.515625 156.710938 189.648438 157.613281 188.902344 L 157.992188 188.589844 C 158.898438 187.84375 159.027344 186.492188 158.285156 185.585938 L 154.519531 181.011719 C 153.773438 180.109375 152.421875 179.972656 151.519531 180.722656"/><path fill="#2F3030" d="M 125.652344 188.105469 L 125.308594 187.761719 C 124.480469 186.925781 124.484375 185.566406 125.316406 184.742188 L 129.511719 180.558594 C 130.339844 179.734375 131.699219 179.734375 132.527344 180.566406 L 132.871094 180.914062 C 133.699219 181.746094 133.695312 183.101562 132.867188 183.929688 L 128.671875 188.109375 C 127.839844 188.941406 126.480469 188.9375 125.652344 188.105469"/><path fill="#2F3030" d="M 119.695312 171.464844 L 119.695312 171.058594 C 119.699219 169.886719 120.660156 168.929688 121.835938 168.929688 L 127.578125 168.941406 C 128.753906 168.945312 129.710938 169.90625 129.707031 171.078125 L 129.707031 171.484375 C 129.707031 172.660156 128.742188 173.617188 127.570312 173.613281 L 121.824219 173.601562 C 120.652344 173.597656 119.691406 172.640625 119.695312 171.464844"/><path fill="#2F3030" d="M 154.933594 171.46875 L 154.9375 170.976562 C 154.941406 169.804688 155.898438 168.847656 157.070312 168.847656 L 162.996094 168.863281 C 164.167969 168.863281 165.125 169.824219 165.125 170.996094 L 165.121094 171.484375 C 165.121094 172.660156 164.15625 173.617188 162.984375 173.617188 L 157.0625 173.601562 C 155.886719 173.601562 154.933594 172.640625 154.933594 171.46875"/><path fill="#2F3030" d="M 306.277344 152.1875 C 295.425781 152.167969 286.570312 160.984375 286.550781 171.847656 C 286.527344 182.707031 295.339844 191.5625 306.195312 191.585938 C 317.050781 191.609375 325.902344 182.792969 325.925781 171.933594 C 325.949219 161.070312 317.136719 152.214844 306.277344 152.1875 Z M 306.1875 196.257812 C 292.753906 196.230469 281.851562 185.273438 281.882812 171.835938 C 281.90625 158.398438 292.859375 147.488281 306.289062 147.519531 C 319.722656 147.546875 330.625 158.5 330.59375 171.941406 C 330.566406 185.378906 319.617188 196.285156 306.1875 196.257812"/><path fill="#2F3030" d="M 306.132812 159.871094 L 305.726562 159.871094 C 304.554688 159.867188 303.597656 158.902344 303.597656 157.730469 L 303.613281 151.980469 C 303.613281 150.808594 304.574219 149.851562 305.75 149.851562 L 306.152344 149.855469 C 307.328125 149.855469 308.289062 150.820312 308.285156 151.992188 L 308.269531 157.738281 C 308.269531 158.914062 307.304688 159.871094 306.132812 159.871094"/><path fill="#2F3030" d="M 315.90625 162.878906 L 315.59375 162.617188 C 314.6875 161.867188 314.5625 160.515625 315.3125 159.613281 L 318.980469 155.191406 C 319.734375 154.289062 321.082031 154.160156 321.988281 154.914062 L 322.300781 155.171875 C 323.199219 155.921875 323.328125 157.273438 322.578125 158.175781 L 318.90625 162.597656 C 318.15625 163.503906 316.804688 163.625 315.90625 162.878906"/><path fill="#2F3030" d="M 290.886719 155.929688 L 290.574219 156.1875 C 289.667969 156.933594 289.535156 158.285156 290.28125 159.1875 L 293.933594 163.625 C 294.679688 164.535156 296.03125 164.664062 296.933594 163.917969 L 297.246094 163.660156 C 298.15625 162.914062 298.285156 161.5625 297.542969 160.65625 L 293.890625 156.21875 C 293.140625 155.316406 291.789062 155.179688 290.886719 155.929688"/><path fill="#2F3030" d="M 305.746094 184.238281 L 305.339844 184.238281 C 304.171875 184.234375 303.207031 185.195312 303.203125 186.367188 L 303.191406 192.113281 C 303.1875 193.289062 304.148438 194.25 305.320312 194.253906 L 305.726562 194.253906 C 306.898438 194.257812 307.859375 193.296875 307.863281 192.125 L 307.875 186.375 C 307.878906 185.203125 306.917969 184.242188 305.746094 184.238281"/><path fill="#2F3030" d="M 315.53125 180.9375 L 315.21875 181.199219 C 314.3125 181.941406 314.179688 183.292969 314.925781 184.203125 L 318.578125 188.636719 C 319.324219 189.542969 320.675781 189.675781 321.582031 188.929688 L 321.894531 188.671875 C 322.796875 187.925781 322.933594 186.574219 322.183594 185.667969 L 318.535156 181.230469 C 317.789062 180.324219 316.4375 180.195312 315.53125 180.9375"/><path fill="#2F3030" d="M 290.121094 188.144531 L 289.835938 187.855469 C 289.007812 187.023438 289.007812 185.667969 289.839844 184.839844 L 293.910156 180.78125 C 294.746094 179.957031 296.101562 179.960938 296.929688 180.789062 L 297.214844 181.074219 C 298.042969 181.910156 298.039062 183.269531 297.207031 184.09375 L 293.136719 188.152344 C 292.308594 188.976562 290.949219 188.976562 290.121094 188.144531"/><path fill="#2F3030" d="M 283.5 171.816406 L 283.503906 171.40625 C 283.503906 170.234375 284.464844 169.277344 285.636719 169.277344 L 291.386719 169.292969 C 292.558594 169.292969 293.515625 170.257812 293.511719 171.429688 L 293.511719 171.835938 C 293.507812 173.011719 292.546875 173.96875 291.375 173.96875 L 285.632812 173.953125 C 284.457031 173.949219 283.5 172.988281 283.5 171.816406"/><path fill="#2F3030" d="M 318.917969 171.785156 L 318.917969 171.378906 C 318.921875 170.207031 319.882812 169.246094 321.058594 169.25 L 326.800781 169.261719 C 327.972656 169.265625 328.933594 170.226562 328.929688 171.398438 L 328.929688 171.804688 C 328.925781 172.976562 327.964844 173.9375 326.789062 173.933594 L 321.046875 173.921875 C 319.875 173.917969 318.914062 172.960938 318.917969 171.785156"/><path fill="#44454A" d="M 362.039062 310.746094 L 86.269531 310.15625 L 102.019531 245.917969 C 102.347656 244.582031 103.546875 243.644531 104.921875 243.652344 L 345.867188 244.71875 C 347.269531 244.726562 348.480469 245.714844 348.765625 247.085938 L 362.039062 310.746094"/><path fill="#F791B0" d="M 355.984375 310.730469 L 92.042969 310.167969 L 92.144531 309.742188 L 92.664062 307.632812 L 93.742188 303.222656 L 94.179688 301.449219 L 95.261719 297.042969 L 95.777344 294.929688 L 96.855469 290.519531 L 97.351562 288.527344 L 98.429688 284.117188 L 98.945312 282.007812 L 100.03125 277.597656 L 100.539062 275.515625 L 101.617188 271.109375 L 102.136719 269 L 103.222656 264.589844 L 103.703125 262.59375 L 104.789062 258.1875 L 105.300781 256.078125 L 106.386719 251.667969 L 106.53125 251.070312 C 106.785156 250.042969 107.707031 249.324219 108.765625 249.328125 L 341.550781 250.359375 C 342.632812 250.359375 343.5625 251.121094 343.78125 252.175781 L 344.699219 256.589844 L 345.140625 258.703125 L 346.0625 263.117188 L 346.472656 265.109375 L 347.394531 269.523438 L 347.835938 271.632812 L 348.753906 276.050781 L 349.1875 278.132812 L 350.109375 282.542969 L 350.550781 284.65625 L 351.46875 289.066406 L 351.890625 291.066406 L 352.808594 295.480469 L 353.246094 297.59375 L 354.167969 302.007812 L 354.539062 303.78125 L 355.457031 308.195312 L 355.898438 310.308594 L 355.984375 310.730469"/><path fill="#44454A" d="M 130.6875 292.007812 C 130.679688 295.253906 128.042969 297.882812 124.800781 297.875 C 121.550781 297.867188 118.925781 295.230469 118.933594 291.980469 C 118.941406 288.734375 121.578125 286.105469 124.824219 286.113281 C 128.070312 286.117188 130.695312 288.757812 130.6875 292.007812"/><path fill="#44454A" d="M 178.550781 292.109375 L 170.992188 292.089844 C 169.1875 292.089844 167.722656 290.617188 167.726562 288.808594 L 167.742188 281.246094 C 167.746094 279.4375 169.214844 277.976562 171.023438 277.980469 L 178.582031 277.996094 C 180.390625 277.996094 181.851562 279.46875 181.847656 281.277344 L 181.832031 288.84375 C 181.828125 290.648438 180.359375 292.113281 178.550781 292.109375"/><path fill="#44454A" d="M 278.476562 292.324219 L 270.914062 292.308594 C 269.109375 292.304688 267.644531 290.832031 267.648438 289.023438 L 267.667969 281.460938 C 267.671875 279.652344 269.140625 278.1875 270.949219 278.191406 L 278.507812 278.210938 C 280.316406 278.214844 281.777344 279.683594 281.773438 281.488281 L 281.757812 289.054688 C 281.753906 290.863281 280.285156 292.328125 278.476562 292.324219"/><path fill="#44454A" d="M 330.539062 292.433594 C 330.53125 295.683594 327.894531 298.3125 324.648438 298.304688 C 321.402344 298.296875 318.777344 295.65625 318.78125 292.40625 C 318.789062 289.164062 321.425781 286.53125 324.671875 286.542969 C 327.921875 286.546875 330.546875 289.183594 330.539062 292.433594"/><path fill="#FEF0F2" d="M 132.238281 118.878906 L 311.5625 120.910156 C 311.5625 120.910156 311.5625 120.910156 307.128906 115.894531 C 307.128906 115.894531 307.683594 114.226562 315.464844 113.6875 C 315.464844 113.6875 319.914062 113.144531 313.808594 109.792969 C 307.703125 106.441406 305.484375 104.773438 306.597656 101.996094 C 306.597656 101.996094 313.835938 96.449219 312.734375 92.554688 C 312.734375 92.554688 265.777344 89.398438 236.328125 88.777344 C 206.875 88.160156 154.632812 89.714844 154.632812 89.714844 C 154.632812 89.714844 141.292969 90.242188 139.070312 90.238281 L 137.402344 90.234375 C 137.402344 90.234375 140.722656 96.355469 142.941406 99.140625 C 142.941406 99.140625 142.378906 101.921875 137.371094 105.246094 C 137.371094 105.246094 137.363281 107.46875 143.472656 110.265625 C 143.472656 110.265625 131.96875 116.378906 132.238281 118.878906"/><path fill="#2C2D2E" d="M 183.101562 95.765625 C 181.613281 101.542969 179.816406 107.230469 178.324219 113.007812 C 178.140625 113.722656 178.710938 114.652344 179.53125 114.5625 C 181.585938 114.347656 183.734375 114.226562 185.792969 114.539062 C 186.457031 114.636719 187.113281 114.355469 187.304688 113.664062 C 187.46875 113.070312 187.085938 112.25 186.425781 112.148438 C 184.136719 111.796875 181.8125 111.851562 179.507812 112.09375 C 179.910156 112.609375 180.3125 113.125 180.714844 113.648438 C 182.207031 107.867188 184 102.179688 185.492188 96.402344 C 185.890625 94.859375 183.5 94.222656 183.101562 95.765625"/><path fill="#2C2D2E" d="M 199.640625 96.925781 C 197.550781 96.242188 195.453125 96.53125 193.84375 98.0625 C 191.828125 99.976562 190.820312 102.75 190.582031 105.472656 C 190.363281 108 190.933594 110.730469 192.449219 112.800781 C 193.234375 113.875 194.25 114.875 195.507812 115.375 C 196.957031 115.957031 198.566406 115.605469 199.878906 114.820312 C 204.570312 112.019531 205.402344 104.875 203.113281 100.292969 C 201.859375 97.773438 199 95.878906 196.128906 96.601562 C 193.695312 97.222656 191.910156 99.820312 192.175781 102.308594 C 192.398438 104.386719 193.933594 106.183594 195.664062 107.238281 C 198.136719 108.753906 201.144531 108.636719 203.761719 107.5625 C 204.382812 107.304688 204.800781 106.734375 204.613281 106.035156 C 204.453125 105.445312 203.703125 104.933594 203.082031 105.183594 C 201.359375 105.894531 199.449219 106.25 197.667969 105.503906 C 196.53125 105.027344 195.558594 104.160156 194.976562 103.109375 C 194.757812 102.722656 194.570312 102.261719 194.621094 101.632812 C 194.6875 100.800781 195.152344 99.976562 195.816406 99.464844 C 197.445312 98.207031 199.601562 99.34375 200.589844 100.855469 C 202.566406 103.882812 202.308594 109.082031 199.785156 111.746094 C 199.144531 112.421875 198.28125 113.0625 197.335938 113.191406 C 196.292969 113.328125 195.449219 112.546875 194.808594 111.816406 C 193.59375 110.4375 193.058594 108.554688 193.015625 106.75 C 192.957031 104.550781 193.566406 102.203125 194.96875 100.480469 C 195.640625 99.652344 196.328125 99.03125 197.425781 99.042969 C 197.960938 99.050781 198.492188 99.152344 199.003906 99.316406 C 200.515625 99.816406 201.144531 97.421875 199.640625 96.925781"/><path fill="#2C2D2E" d="M 208.28125 97.738281 C 208.753906 103.195312 209.355469 108.636719 210.089844 114.070312 C 210.167969 114.621094 210.433594 115.09375 211.007812 115.25 C 211.496094 115.386719 212.183594 115.164062 212.398438 114.671875 C 214.25 110.507812 216.488281 106.535156 219.085938 102.792969 C 218.371094 102.382812 217.65625 101.972656 216.945312 101.5625 C 216.890625 101.683594 216.839844 101.800781 216.785156 101.921875 C 216.515625 102.535156 216.625 103.246094 217.242188 103.609375 C 217.769531 103.917969 218.660156 103.757812 218.929688 103.152344 C 218.980469 103.03125 219.035156 102.910156 219.085938 102.792969 C 219.726562 101.339844 217.859375 100.242188 216.945312 101.5625 C 214.34375 105.304688 212.109375 109.277344 210.253906 113.441406 C 211.023438 113.644531 211.792969 113.84375 212.5625 114.046875 C 211.828125 108.617188 211.222656 103.171875 210.75 97.714844 C 210.613281 96.140625 208.140625 96.148438 208.28125 97.738281"/><path fill="#2C2D2E" d="M 225.132812 97.164062 C 224.449219 100.789062 223.765625 104.414062 223.082031 108.039062 C 222.917969 108.90625 222.753906 109.777344 222.589844 110.644531 C 222.445312 111.410156 222.066406 112.460938 222.285156 113.242188 C 222.773438 114.953125 225.296875 114.496094 226.632812 114.523438 C 228.226562 114.554688 228.203125 112.085938 226.613281 112.050781 C 226.140625 112.039062 225.667969 112.03125 225.199219 112.023438 C 225.007812 112.019531 224.816406 112.015625 224.628906 112.011719 C 224.488281 112.007812 224.34375 112.003906 224.203125 112 C 224.027344 111.996094 224.015625 111.996094 224.175781 112.007812 C 224.324219 112.152344 224.472656 112.296875 224.621094 112.445312 C 224.59375 112.386719 224.566406 112.328125 224.535156 112.269531 C 224.59375 112.480469 224.652344 112.683594 224.710938 112.890625 C 224.679688 112.335938 224.898438 111.679688 225.007812 111.128906 C 225.121094 110.515625 225.238281 109.902344 225.355469 109.289062 C 225.59375 108.011719 225.835938 106.738281 226.078125 105.460938 C 226.558594 102.90625 227.042969 100.355469 227.523438 97.800781 C 227.816406 96.242188 225.433594 95.597656 225.132812 97.164062"/><path fill="#2C2D2E" d="M 225.226562 105.519531 C 225.746094 105.78125 226.261719 106.042969 226.796875 106.269531 C 227.480469 106.554688 228.210938 106.859375 228.972656 106.839844 C 229.292969 106.832031 229.617188 106.699219 229.84375 106.472656 C 230.054688 106.253906 230.210938 105.902344 230.195312 105.59375 C 230.164062 104.9375 229.640625 104.347656 228.949219 104.371094 C 228.863281 104.371094 228.78125 104.367188 228.699219 104.355469 C 228.808594 104.371094 228.917969 104.386719 229.027344 104.394531 C 228.601562 104.339844 228.1875 104.1875 227.789062 104.027344 C 227.890625 104.066406 227.988281 104.105469 228.085938 104.148438 C 227.53125 103.914062 226.992188 103.644531 226.457031 103.371094 C 226.160156 103.222656 225.828125 103.164062 225.507812 103.257812 C 225.21875 103.339844 224.910156 103.5625 224.769531 103.832031 C 224.476562 104.398438 224.613281 105.210938 225.226562 105.519531"/><path fill="#2C2D2E" d="M 226.191406 98.554688 C 227.296875 98.792969 228.375 99.140625 229.484375 99.382812 C 229.804688 99.453125 230.144531 99.425781 230.433594 99.25 C 230.6875 99.097656 230.929688 98.800781 230.996094 98.507812 C 231.132812 97.875 230.796875 97.144531 230.117188 96.992188 C 229.015625 96.75 227.929688 96.40625 226.828125 96.164062 C 226.503906 96.09375 226.160156 96.121094 225.875 96.292969 C 225.621094 96.445312 225.378906 96.746094 225.3125 97.039062 C 225.175781 97.667969 225.511719 98.402344 226.191406 98.554688"/><path fill="#2C2D2E" d="M 246.457031 99.972656 C 246.058594 105.1875 245.664062 110.410156 245.265625 115.632812 C 245.144531 117.21875 247.617188 117.1875 247.734375 115.609375 C 248.132812 110.386719 248.53125 105.171875 248.925781 99.949219 C 249.046875 98.363281 246.574219 98.394531 246.457031 99.972656"/><path fill="#2C2D2E" d="M 247.847656 94.511719 C 247.828125 94.511719 247.8125 94.515625 247.796875 94.523438 C 247.6875 94.558594 247.570312 94.605469 247.46875 94.667969 C 247.464844 94.671875 247.457031 94.675781 247.449219 94.683594 C 247.410156 94.707031 247.234375 94.847656 247.199219 94.878906 C 247.195312 94.878906 247.191406 94.882812 247.191406 94.882812 C 247.183594 94.890625 247.175781 94.894531 247.171875 94.902344 C 247.167969 94.902344 247.167969 94.90625 247.164062 94.910156 C 247.113281 94.972656 247.019531 95.09375 246.972656 95.167969 C 246.960938 95.175781 246.953125 95.191406 246.945312 95.207031 C 246.941406 95.214844 246.9375 95.21875 246.9375 95.226562 C 246.890625 95.328125 246.847656 95.4375 246.808594 95.542969 C 246.804688 95.558594 246.796875 95.570312 246.796875 95.585938 C 246.792969 95.59375 246.792969 95.601562 246.792969 95.609375 C 246.773438 95.722656 246.757812 95.84375 246.75 95.960938 C 246.75 95.972656 246.75 95.992188 246.75 96.007812 C 246.75 96.015625 246.75 96.023438 246.75 96.03125 C 246.761719 96.140625 246.777344 96.269531 246.800781 96.378906 C 246.816406 96.460938 246.851562 96.535156 246.890625 96.613281 C 246.914062 96.671875 246.9375 96.746094 246.972656 96.800781 C 246.976562 96.808594 246.980469 96.816406 246.988281 96.820312 C 246.988281 96.824219 246.992188 96.828125 246.992188 96.828125 C 247.042969 96.898438 247.136719 97.019531 247.191406 97.082031 C 247.28125 97.179688 247.390625 97.265625 247.507812 97.324219 C 247.511719 97.328125 247.515625 97.328125 247.519531 97.332031 C 247.558594 97.351562 247.777344 97.441406 247.820312 97.457031 C 247.824219 97.457031 247.832031 97.460938 247.839844 97.460938 C 247.847656 97.464844 247.855469 97.464844 247.863281 97.46875 C 247.863281 97.46875 247.867188 97.46875 247.871094 97.46875 C 247.984375 97.484375 248.09375 97.5 248.203125 97.511719 C 248.207031 97.511719 248.210938 97.511719 248.214844 97.511719 C 248.21875 97.511719 248.222656 97.515625 248.226562 97.515625 C 248.277344 97.507812 248.332031 97.5 248.390625 97.488281 C 248.5 97.488281 248.605469 97.457031 248.699219 97.402344 C 248.769531 97.375 248.816406 97.359375 248.875 97.320312 C 248.878906 97.316406 248.890625 97.308594 248.898438 97.304688 C 248.988281 97.234375 249.085938 97.164062 249.171875 97.089844 C 249.277344 96.992188 249.367188 96.855469 249.445312 96.746094 C 249.460938 96.722656 249.472656 96.707031 249.484375 96.683594 C 249.542969 96.574219 249.582031 96.449219 249.632812 96.332031 C 249.648438 96.289062 249.660156 96.246094 249.667969 96.199219 C 249.691406 96.074219 249.707031 95.941406 249.71875 95.8125 C 249.722656 95.792969 249.722656 95.765625 249.722656 95.742188 C 249.714844 95.585938 249.695312 95.429688 249.652344 95.28125 C 249.648438 95.257812 249.640625 95.242188 249.632812 95.21875 C 249.589844 95.113281 249.542969 95.007812 249.496094 94.90625 C 249.492188 94.894531 249.484375 94.878906 249.476562 94.867188 C 249.472656 94.859375 249.46875 94.851562 249.460938 94.84375 C 249.324219 94.625 249.300781 94.621094 249.136719 94.492188 C 249.097656 94.464844 249.050781 94.429688 249.011719 94.398438 C 248.914062 94.359375 248.8125 94.316406 248.71875 94.277344 C 248.703125 94.273438 248.691406 94.269531 248.679688 94.269531 C 248.5625 94.25 248.433594 94.234375 248.316406 94.222656 C 248.257812 94.21875 248.207031 94.21875 248.152344 94.222656 C 248.007812 94.238281 247.828125 94.253906 247.675781 94.300781 C 247.605469 94.324219 247.53125 94.359375 247.464844 94.386719 C 247.390625 94.421875 247.3125 94.453125 247.238281 94.492188 C 247.21875 94.503906 247.195312 94.519531 247.171875 94.535156 C 247.121094 94.570312 247.074219 94.613281 247.023438 94.648438 C 246.976562 94.691406 246.917969 94.730469 246.867188 94.773438 C 246.851562 94.789062 246.832031 94.808594 246.8125 94.828125 C 246.808594 94.832031 246.804688 94.839844 246.800781 94.84375 C 246.773438 94.867188 246.625 95.0625 246.605469 95.097656 C 246.585938 95.148438 246.5625 95.195312 246.542969 95.246094 C 246.464844 95.394531 246.433594 95.554688 246.441406 95.726562 C 246.441406 95.726562 246.441406 95.734375 246.441406 95.738281 C 246.445312 95.867188 246.46875 95.992188 246.492188 96.117188 C 246.496094 96.132812 246.5 96.152344 246.511719 96.171875 C 246.554688 96.296875 246.605469 96.441406 246.6875 96.554688 C 246.75 96.644531 246.824219 96.738281 246.894531 96.820312 C 246.898438 96.828125 246.902344 96.832031 246.910156 96.835938 C 246.925781 96.851562 246.933594 96.867188 246.949219 96.878906 C 247.035156 96.949219 247.132812 97.019531 247.222656 97.082031 C 247.226562 97.085938 247.234375 97.09375 247.238281 97.097656 C 247.257812 97.109375 247.273438 97.121094 247.292969 97.128906 C 247.304688 97.132812 247.3125 97.136719 247.316406 97.140625 C 247.421875 97.1875 247.53125 97.230469 247.632812 97.269531 C 247.652344 97.277344 247.675781 97.285156 247.695312 97.289062 C 247.710938 97.296875 247.726562 97.296875 247.746094 97.300781 C 247.859375 97.316406 247.980469 97.332031 248.09375 97.34375 C 248.101562 97.34375 248.113281 97.347656 248.125 97.347656 C 248.269531 97.351562 248.421875 97.316406 248.5625 97.292969 C 248.695312 97.261719 248.828125 97.195312 248.949219 97.128906 C 248.964844 97.121094 248.980469 97.113281 248.996094 97.101562 C 249.082031 97.035156 249.179688 96.964844 249.261719 96.894531 C 249.265625 96.886719 249.273438 96.878906 249.277344 96.871094 C 249.324219 96.828125 249.359375 96.765625 249.394531 96.726562 C 249.421875 96.691406 249.46875 96.632812 249.5 96.585938 C 249.503906 96.578125 249.507812 96.570312 249.511719 96.5625 C 249.535156 96.511719 249.589844 96.367188 249.574219 96.40625 C 249.574219 96.410156 249.625 96.292969 249.640625 96.246094 C 249.671875 96.125 249.683594 95.976562 249.6875 95.882812 C 249.691406 95.808594 249.671875 95.734375 249.664062 95.671875 C 249.65625 95.617188 249.652344 95.535156 249.632812 95.472656 C 249.632812 95.46875 249.628906 95.464844 249.628906 95.460938 C 249.609375 95.410156 249.519531 95.210938 249.5 95.164062 C 249.5 95.15625 249.496094 95.148438 249.488281 95.140625 C 249.480469 95.125 249.472656 95.113281 249.464844 95.101562 C 249.402344 95.015625 249.328125 94.921875 249.261719 94.84375 C 249.253906 94.835938 249.246094 94.828125 249.238281 94.820312 C 249.226562 94.808594 249.214844 94.800781 249.203125 94.789062 C 249.117188 94.71875 249.027344 94.648438 248.9375 94.585938 C 248.929688 94.582031 248.921875 94.578125 248.914062 94.574219 C 248.898438 94.5625 248.882812 94.554688 248.871094 94.546875 C 248.773438 94.503906 248.660156 94.460938 248.558594 94.421875 C 248.550781 94.417969 248.542969 94.414062 248.535156 94.410156 C 248.519531 94.40625 248.5 94.402344 248.484375 94.398438 C 248.425781 94.386719 248.351562 94.382812 248.300781 94.375 C 248.253906 94.371094 248.175781 94.355469 248.113281 94.351562 C 248.097656 94.351562 248.085938 94.351562 248.070312 94.355469 C 248.015625 94.359375 247.902344 94.378906 247.898438 94.378906 C 247.933594 94.375 247.78125 94.390625 247.726562 94.402344 C 247.71875 94.402344 247.707031 94.40625 247.703125 94.40625 C 247.695312 94.410156 247.691406 94.414062 247.683594 94.414062 C 247.621094 94.441406 247.445312 94.515625 247.386719 94.542969 C 247.382812 94.542969 247.378906 94.546875 247.375 94.546875 C 247.367188 94.550781 247.363281 94.554688 247.359375 94.558594 C 247.316406 94.589844 247.21875 94.671875 247.226562 94.664062 C 247.226562 94.664062 247.132812 94.730469 247.09375 94.769531 C 247.085938 94.773438 247.082031 94.777344 247.082031 94.78125 C 247.078125 94.78125 247.074219 94.785156 247.070312 94.789062 C 247.042969 94.824219 246.902344 95.011719 246.875 95.046875 C 246.867188 95.0625 246.855469 95.078125 246.851562 95.09375 C 246.761719 95.234375 246.710938 95.390625 246.707031 95.554688 C 246.671875 95.71875 246.683594 95.882812 246.734375 96.042969 C 246.773438 96.203125 246.851562 96.347656 246.957031 96.464844 C 247.046875 96.597656 247.160156 96.703125 247.308594 96.777344 C 247.40625 96.820312 247.503906 96.859375 247.605469 96.902344 C 247.824219 96.960938 248.042969 96.957031 248.257812 96.898438 C 248.359375 96.851562 248.457031 96.8125 248.558594 96.769531 C 248.738281 96.660156 248.886719 96.511719 248.996094 96.320312 C 249.003906 96.304688 249.011719 96.289062 249.023438 96.277344 C 248.957031 96.359375 248.890625 96.441406 248.828125 96.527344 C 248.839844 96.515625 248.851562 96.507812 248.863281 96.496094 C 248.78125 96.558594 248.699219 96.625 248.617188 96.6875 C 248.628906 96.679688 248.640625 96.671875 248.652344 96.667969 C 248.558594 96.710938 248.457031 96.75 248.359375 96.792969 C 248.378906 96.789062 248.394531 96.78125 248.410156 96.777344 C 248.300781 96.796875 248.191406 96.8125 248.082031 96.828125 C 248.105469 96.824219 248.132812 96.824219 248.160156 96.828125 C 248.046875 96.8125 247.941406 96.800781 247.828125 96.785156 C 247.863281 96.789062 247.890625 96.796875 247.921875 96.8125 C 247.820312 96.769531 247.722656 96.730469 247.625 96.6875 C 247.660156 96.703125 247.691406 96.722656 247.71875 96.746094 C 247.636719 96.679688 247.550781 96.617188 247.472656 96.554688 C 247.492188 96.570312 247.515625 96.589844 247.535156 96.613281 C 247.46875 96.53125 247.402344 96.445312 247.335938 96.363281 C 247.351562 96.386719 247.367188 96.40625 247.378906 96.433594 C 247.332031 96.332031 247.292969 96.234375 247.25 96.132812 C 247.253906 96.152344 247.261719 96.167969 247.265625 96.1875 C 247.246094 96.078125 247.234375 95.964844 247.21875 95.859375 C 247.21875 95.875 247.21875 95.886719 247.21875 95.902344 C 247.234375 95.796875 247.242188 95.683594 247.257812 95.574219 C 247.257812 95.589844 247.253906 95.605469 247.246094 95.621094 C 247.289062 95.523438 247.328125 95.421875 247.371094 95.324219 C 247.363281 95.339844 247.355469 95.355469 247.34375 95.371094 C 247.40625 95.285156 247.472656 95.203125 247.535156 95.117188 C 247.519531 95.136719 247.5 95.15625 247.480469 95.171875 C 247.5625 95.105469 247.644531 95.039062 247.726562 94.976562 C 247.707031 94.992188 247.683594 95.007812 247.65625 95.015625 C 247.757812 94.976562 247.855469 94.933594 247.949219 94.890625 C 247.921875 94.902344 247.890625 94.914062 247.859375 94.917969 C 247.964844 94.902344 248.078125 94.886719 248.183594 94.867188 C 248.148438 94.875 248.105469 94.875 248.070312 94.867188 C 248.175781 94.882812 248.289062 94.898438 248.398438 94.914062 C 248.351562 94.90625 248.308594 94.894531 248.261719 94.878906 C 248.363281 94.917969 248.464844 94.957031 248.5625 95 C 248.519531 94.980469 248.480469 94.960938 248.441406 94.933594 C 248.527344 94.996094 248.609375 95.058594 248.695312 95.125 C 248.664062 95.097656 248.640625 95.078125 248.617188 95.046875 C 248.683594 95.128906 248.746094 95.214844 248.8125 95.296875 C 248.796875 95.269531 248.78125 95.246094 248.765625 95.21875 C 248.808594 95.320312 248.851562 95.414062 248.890625 95.511719 C 248.878906 95.488281 248.875 95.457031 248.871094 95.425781 C 248.882812 95.535156 248.898438 95.644531 248.914062 95.753906 C 248.914062 95.734375 248.914062 95.722656 248.914062 95.703125 C 248.796875 95.996094 248.675781 96.285156 248.558594 96.582031 C 248.589844 96.542969 248.625 96.511719 248.660156 96.480469 C 248.578125 96.542969 248.496094 96.609375 248.414062 96.671875 C 248.464844 96.636719 248.519531 96.601562 248.578125 96.578125 C 248.484375 96.621094 248.386719 96.664062 248.285156 96.703125 C 248.347656 96.675781 248.414062 96.660156 248.484375 96.652344 C 248.375 96.667969 248.261719 96.679688 248.15625 96.695312 C 248.21875 96.6875 248.28125 96.6875 248.347656 96.695312 C 248.238281 96.679688 248.128906 96.671875 248.019531 96.65625 C 248.039062 96.660156 248.058594 96.664062 248.078125 96.667969 C 247.832031 96.480469 247.582031 96.289062 247.332031 96.105469 C 247.351562 96.128906 247.367188 96.15625 247.378906 96.1875 C 247.335938 96.085938 247.296875 95.988281 247.25 95.890625 C 247.269531 95.9375 247.285156 95.980469 247.289062 96.03125 C 247.273438 95.921875 247.257812 95.808594 247.242188 95.703125 C 247.25 95.753906 247.25 95.808594 247.242188 95.867188 C 247.257812 95.753906 247.269531 95.648438 247.285156 95.535156 C 247.277344 95.589844 247.261719 95.644531 247.238281 95.695312 C 247.28125 95.597656 247.320312 95.496094 247.363281 95.402344 C 247.34375 95.449219 247.316406 95.488281 247.289062 95.53125 C 247.351562 95.449219 247.414062 95.363281 247.476562 95.28125 C 247.449219 95.316406 247.417969 95.347656 247.386719 95.375 C 247.46875 95.3125 247.550781 95.246094 247.632812 95.179688 C 247.617188 95.191406 247.601562 95.203125 247.582031 95.214844 C 247.789062 95.160156 247.996094 95.097656 248.203125 95.039062 C 248.195312 95.039062 248.1875 95.039062 248.179688 95.039062 C 248.289062 95.050781 248.402344 95.066406 248.507812 95.082031 C 248.488281 95.078125 248.476562 95.074219 248.457031 95.066406 C 248.554688 95.105469 248.652344 95.148438 248.75 95.1875 C 248.734375 95.179688 248.71875 95.171875 248.707031 95.164062 C 248.792969 95.226562 248.875 95.289062 248.957031 95.351562 C 248.945312 95.339844 248.933594 95.332031 248.917969 95.316406 C 248.984375 95.398438 249.050781 95.480469 249.113281 95.566406 C 249.101562 95.542969 249.085938 95.519531 249.074219 95.496094 C 249.117188 95.59375 249.160156 95.695312 249.203125 95.792969 C 249.1875 95.761719 249.183594 95.726562 249.175781 95.695312 C 249.191406 95.804688 249.207031 95.914062 249.222656 96.023438 C 249.21875 95.988281 249.21875 95.957031 249.222656 95.921875 C 249.207031 96.03125 249.191406 96.136719 249.183594 96.25 C 249.1875 96.21875 249.191406 96.191406 249.203125 96.160156 C 249.164062 96.257812 249.121094 96.355469 249.082031 96.453125 C 249.09375 96.433594 249.105469 96.414062 249.113281 96.398438 C 249.050781 96.480469 248.988281 96.566406 248.925781 96.648438 C 248.9375 96.632812 248.949219 96.621094 248.960938 96.609375 C 248.878906 96.671875 248.796875 96.742188 248.714844 96.804688 C 248.726562 96.792969 248.742188 96.785156 248.761719 96.777344 C 248.660156 96.820312 248.5625 96.863281 248.46875 96.90625 C 248.484375 96.898438 248.5 96.894531 248.523438 96.890625 C 248.683594 96.847656 248.820312 96.773438 248.941406 96.667969 C 249.074219 96.578125 249.179688 96.457031 249.257812 96.316406 C 249.34375 96.171875 249.394531 96.019531 249.398438 95.855469 C 249.433594 95.691406 249.421875 95.523438 249.371094 95.359375 C 249.332031 95.261719 249.289062 95.167969 249.246094 95.066406 C 249.132812 94.882812 248.984375 94.734375 248.796875 94.625 C 248.699219 94.585938 248.601562 94.542969 248.5 94.503906 C 248.28125 94.449219 248.0625 94.453125 247.847656 94.511719"/><path fill="#2C2D2E" d="M 260.167969 97.480469 C 257.863281 96.507812 255.058594 96.945312 253.417969 98.949219 C 251.835938 100.878906 251.722656 103.828125 253.210938 105.847656 C 254.011719 106.941406 255.171875 107.578125 256.171875 108.464844 C 257.113281 109.292969 257.5625 110.167969 256.957031 111.34375 C 255.949219 113.296875 253.59375 114.503906 251.417969 114.144531 C 249.859375 113.886719 249.210938 116.273438 250.777344 116.53125 C 253.199219 116.933594 255.59375 116.261719 257.449219 114.648438 C 259.363281 112.984375 260.554688 110.207031 258.992188 107.921875 C 257.675781 105.992188 254.609375 105.171875 254.625 102.496094 C 254.636719 100.355469 256.914062 98.769531 258.933594 99.625 C 259.554688 99.886719 260.253906 99.792969 260.625 99.167969 C 260.929688 98.644531 260.78125 97.738281 260.167969 97.480469"/><path fill="#ED4721" d="M 276.875 114.125 C 276.875 114.125 296.261719 103.441406 287.703125 97.945312 C 287.703125 97.945312 282.492188 97.53125 279.691406 102.492188 C 279.691406 102.492188 279.699219 93.871094 276.914062 95.652344 C 274.132812 97.441406 273.003906 106.335938 276.875 114.125"/><path fill="#FEF0F2" d="M 389.375 183.023438 C 389.375 183.023438 383.414062 174.507812 374.246094 180.953125 C 367.207031 185.902344 368.523438 191.710938 368.523438 191.710938 C 368.523438 191.710938 353.207031 186.019531 352.515625 201.6875 C 352.515625 201.6875 333.84375 198.171875 337.113281 211.367188 C 340.382812 224.5625 391.464844 219.726562 391.464844 219.726562 L 389.375 183.023438"/><path fill="#FEF0F2" d="M 87.320312 233.09375 C 87.320312 233.09375 75.101562 232.4375 75.101562 232.4375 C 73.585938 224.839844 83.105469 222.898438 83.6875 222.785156 C 85.035156 222.511719 87.699219 222.210938 90.972656 223.039062 C 90.972656 223.039062 91.910156 215.207031 98.796875 214.996094 C 105.691406 214.777344 107.148438 220.78125 107.148438 220.78125 C 107.148438 220.78125 108.925781 215.746094 114.835938 217.234375 C 117.328125 217.859375 119.316406 219.433594 120.386719 221.402344 L 121.316406 223.109375 C 121.316406 223.109375 124.441406 215.351562 134.527344 221.753906 L 136.414062 224.136719 C 136.414062 224.136719 137.816406 218.402344 144.921875 217.308594 C 148.550781 216.75 152.335938 217.800781 154.625 220.199219 C 155.730469 221.367188 156.457031 222.773438 155.667969 224.175781 C 155.667969 224.175781 162.046875 219.554688 166.316406 224.199219 C 170.582031 228.84375 166.296875 233.265625 166.296875 233.265625 L 87.320312 233.09375"/><path fill="#FEF0F2" d="M 382.414062 112.765625 C 382.414062 112.765625 384.496094 102.484375 374.382812 101.890625 C 371.703125 101.734375 369.042969 102.40625 366.664062 103.644531 L 364.335938 104.859375 C 364.335938 104.859375 361.671875 95.476562 353.238281 97.9375 C 350.550781 98.722656 348.273438 100.53125 346.71875 102.867188 L 345.066406 105.347656 C 345.066406 105.347656 340.625 96.414062 330.957031 102.613281 C 325.777344 105.9375 326.179688 109.679688 327.671875 112.4375 C 328.988281 114.875 331.230469 116.667969 333.824219 117.625 C 341.050781 120.296875 361.460938 125.800781 382.414062 112.765625"/><path fill="#FEF0F2" d="M 59.546875 114.195312 C 59.546875 114.195312 69.707031 100.65625 79.699219 114.238281 C 79.699219 114.238281 94.367188 112.078125 93.257812 123.25 C 93.257812 123.25 104.417969 115.574219 108.574219 125.429688 C 112.734375 135.285156 78.757812 137.949219 59.503906 134.480469 L 59.546875 114.195312"/><path fill="#FEF0F2" d="M 84.265625 136.632812 C 84.265625 136.632812 95.351562 146.878906 103.308594 132.441406 L 84.199219 128.878906 L 59.503906 134.480469 C 59.503906 134.480469 63.003906 151.917969 84.265625 136.632812"/><path fill="#FEF0F2" d="M 328.46875 113.691406 C 328.46875 113.691406 321.363281 122 332.085938 123.558594 C 342.804688 125.117188 344.058594 120.304688 344.058594 120.304688 C 344.058594 120.304688 348.125 128.964844 360.347656 126.351562 C 362.136719 125.96875 363.875 125.308594 365.371094 124.253906 C 367.039062 123.074219 368.636719 121.28125 367.472656 119.140625 C 367.472656 119.140625 380.230469 126.320312 382.414062 112.765625 L 328.46875 113.691406"/><g><use x="76.382" y="80.912" xmlns:xlink="http://www.w3.org/1999/xlink" xlink:href="#c" xlink:type="simple" xlink:actuate="onLoad" xlink:show="embed"/></g><g><use x="124.062" y="80.912" xmlns:xlink="http://www.w3.org/1999/xlink" xlink:href="#d" xlink:type="simple" xlink:actuate="onLoad" xlink:show="embed"/></g><g><use x="153.779" y="80.912" xmlns:xlink="http://www.w3.org/1999/xlink" xlink:href="#e" xlink:type="simple" xlink:actuate="onLoad" xlink:show="embed"/></g><g><use x="186.362" y="80.912" xmlns:xlink="http://www.w3.org/1999/xlink" xlink:href="#f" xlink:type="simple" xlink:actuate="onLoad" xlink:show="embed"/></g><g><use x="215.697" y="80.912" xmlns:xlink="http://www.w3.org/1999/xlink" xlink:href="#g" xlink:type="simple" xlink:actuate="onLoad" xlink:show="embed"/></g><g><use x="233.756" y="80.912" xmlns:xlink="http://www.w3.org/1999/xlink" xlink:href="#h" xlink:type="simple" xlink:actuate="onLoad" xlink:show="embed"/></g><g><use x="284.876" y="80.912" xmlns:xlink="http://www.w3.org/1999/xlink" xlink:href="#g" xlink:type="simple" xlink:actuate="onLoad" xlink:show="embed"/></g><g><use x="302.935" y="80.912" xmlns:xlink="http://www.w3.org/1999/xlink" xlink:href="#i" xlink:type="simple" xlink:actuate="onLoad" xlink:show="embed"/></g><g><use x="338.29" y="80.912" xmlns:xlink="http://www.w3.org/1999/xlink" xlink:href="#i" xlink:type="simple" xlink:actuate="onLoad" xlink:show="embed"/></g></svg>